<svg xmlns="http://www.w3.org/2000/svg" viewBox="0 0 285 240" width="285" height="240" role="img" data-cell="9x18" data-pad="12" data-generator="ascii2svg 1.10.0"><title>ASCII diagram</title><style>.sgl{stroke-width:1.4;stroke-linecap:round;stroke-linejoin:round;fill:none}.dbl{stroke-width:5;stroke-linecap:round;stroke-linejoin:round;fill:none}.dbl-gap{stroke-width:2;stroke-linecap:round;stroke-linejoin:round;fill:none}.head{stroke-width:1;stroke-linejoin:round}text{font:14px ui-monospace,SFMono-Regular,Menlo,Consolas,'DejaVu Sans Mono',monospace;text-anchor:middle;white-space:pre}.dash.n2{stroke-dasharray:4.2 4.8}.dash.n3{stroke-dasharray:2.6 3.4}.dash.n4{stroke-dasharray:1.4 3.1}.uml{stroke-width:1.2;stroke-linejoin:round}.ring{stroke-width:1.3}.foot{fill:none;stroke-width:1.4;stroke-linecap:round;stroke-linejoin:round}.blk{shape-rendering:crispEdges}.k3{fill-opacity:.75}.k2{fill-opacity:.5}.k1{fill-opacity:.28}.fill{transition:fill .25s}text,line,path,polygon,circle,.blk{pointer-events:none}.bg,.fill,.plate{fill:#0d1117}.sgl,.dbl{stroke:#e6edf3}.dbl-gap{stroke:#0d1117}.head{fill:#e6edf3;stroke:#e6edf3}text{fill:#e6edf3}.glow{fill:#ffffff;fill-opacity:0.012}.shadow{fill:#000}.blk{fill:#e6edf3}.uml,.ring{fill:#0d1117;stroke:#e6edf3}.uml.solid{fill:#e6edf3}.foot{stroke:#e6edf3}.shaft{stroke:#58a6ff}.head{fill:#58a6ff;stroke:#58a6ff}.blk{fill:#58a6ff}.uml{stroke:#58a6ff}.uml.solid{fill:#58a6ff}.fill.tn{fill:#151b23}.fill.t0c{fill:#0f1a2b}.fill.t0l{fill:#15325a}.fill.t1c{fill:#0e1f16}.fill.t1l{fill:#16402a}.fill.t2c{fill:#1b1530}.fill.t2l{fill:#34245a}.fill.t3c{fill:#23180e}.fill.t3l{fill:#4a2e14}.fill.t4c{fill:#241421}.fill.t4l{fill:#4a1f3a}.fill.t5c{fill:#0c2023}.fill.t5l{fill:#124042}.fill:hover{fill:#1c2d45}</style><rect width="100%" height="100%" fill="#0d1117" class="bg"/><rect x="81.5" y="15.5" width="122" height="50" rx="11" class="glow"/><rect x="82" y="16" width="121" height="49" rx="10.5" class="glow"/><rect x="82.5" y="16.5" width="120" height="48" rx="10" class="glow"/><rect x="83" y="17" width="119" height="47" rx="9.5" class="glow"/><rect x="83.5" y="17.5" width="118" height="46" rx="9" class="glow"/><rect x="84" y="18" width="117" height="45" rx="8.5" class="glow"/><rect x="84.5" y="18.5" width="116" height="44" rx="8" class="glow"/><rect x="85" y="19" width="115" height="43" rx="7.5" class="glow"/><rect x="85.5" y="19.5" width="114" height="42" rx="7" class="glow"/><rect x="86" y="20" width="113" height="41" rx="6.5" class="glow"/><rect x="86.5" y="20.5" width="112" height="40" rx="6" class="glow"/><rect x="87" y="21" width="111" height="39" rx="5.5" class="glow"/><rect x="87.5" y="21.5" width="110" height="38" rx="5" class="glow"/><rect x="88" y="22" width="109" height="37" rx="4.5" class="glow"/><rect x="88.5" y="21" width="108" height="36" rx="4" class="fill t0l"/><rect x="9.5" y="141.5" width="122" height="50" rx="11" class="glow"/><rect x="10" y="142" width="121" height="49" rx="10.5" class="glow"/><rect x="10.5" y="142.5" width="120" height="48" rx="10" class="glow"/><rect x="11" y="143" width="119" height="47" rx="9.5" class="glow"/><rect x="11.5" y="143.5" width="118" height="46" rx="9" class="glow"/><rect x="12" y="144" width="117" height="45" rx="8.5" class="glow"/><rect x="12.5" y="144.5" width="116" height="44" rx="8" class="glow"/><rect x="13" y="145" width="115" height="43" rx="7.5" class="glow"/><rect x="13.5" y="145.5" width="114" height="42" rx="7" class="glow"/><rect x="14" y="146" width="113" height="41" rx="6.5" class="glow"/><rect x="14.5" y="146.5" width="112" height="40" rx="6" class="glow"/><rect x="15" y="147" width="111" height="39" rx="5.5" class="glow"/><rect x="15.5" y="147.5" width="110" height="38" rx="5" class="glow"/><rect x="16" y="148" width="109" height="37" rx="4.5" class="glow"/><rect x="16.5" y="147" width="108" height="36" rx="4" class="fill t1l"/><rect x="153.5" y="141.5" width="122" height="50" rx="11" class="glow"/><rect x="154" y="142" width="121" height="49" rx="10.5" class="glow"/><rect x="154.5" y="142.5" width="120" height="48" rx="10" class="glow"/><rect x="155" y="143" width="119" height="47" rx="9.5" class="glow"/><rect x="155.5" y="143.5" width="118" height="46" rx="9" class="glow"/><rect x="156" y="144" width="117" height="45" rx="8.5" class="glow"/><rect x="156.5" y="144.5" width="116" height="44" rx="8" class="glow"/><rect x="157" y="145" width="115" height="43" rx="7.5" class="glow"/><rect x="157.5" y="145.5" width="114" height="42" rx="7" class="glow"/><rect x="158" y="146" width="113" height="41" rx="6.5" class="glow"/><rect x="158.5" y="146.5" width="112" height="40" rx="6" class="glow"/><rect x="159" y="147" width="111" height="39" rx="5.5" class="glow"/><rect x="159.5" y="147.5" width="110" height="38" rx="5" class="glow"/><rect x="160" y="148" width="109" height="37" rx="4.5" class="glow"/><rect x="160.5" y="147" width="108" height="36" rx="4" class="fill t2l"/><path d="M92.5 21Q88.5 21 88.5 25" class="sgl"/><path d="M192.5 21Q196.5 21 196.5 25" class="sgl"/><path d="M92.5 57Q88.5 57 88.5 53" class="sgl"/><path d="M192.5 57Q196.5 57 196.5 53" class="sgl"/><path d="M74.5 93Q70.5 93 70.5 97" class="sgl"/><path d="M210.5 93Q214.5 93 214.5 97" class="sgl"/><path d="M20.5 147Q16.5 147 16.5 151" class="sgl"/><path d="M120.5 147Q124.5 147 124.5 151" class="sgl"/><path d="M164.5 147Q160.5 147 160.5 151" class="sgl"/><path d="M264.5 147Q268.5 147 268.5 151" class="sgl"/><path d="M20.5 183Q16.5 183 16.5 179" class="sgl"/><path d="M120.5 183Q124.5 183 124.5 179" class="sgl"/><path d="M164.5 183Q160.5 183 160.5 179" class="sgl"/><path d="M264.5 183Q268.5 183 268.5 179" class="sgl"/><path d="M74.5 219Q70.5 219 70.5 215" class="sgl"/><line x1="92.5" y1="21" x2="192.5" y2="21" class="sgl"/><line x1="92.5" y1="57" x2="192.5" y2="57" class="sgl"/><line x1="74.5" y1="93" x2="210.5" y2="93" class="sgl"/><line x1="20.5" y1="147" x2="120.5" y2="147" class="sgl"/><line x1="164.5" y1="147" x2="264.5" y2="147" class="sgl"/><line x1="138" y1="165" x2="160.5" y2="165" class="sgl"/><line x1="20.5" y1="183" x2="120.5" y2="183" class="sgl"/><line x1="164.5" y1="183" x2="264.5" y2="183" class="sgl"/><line x1="74.5" y1="219" x2="102" y2="219" class="sgl"/><line x1="16.5" y1="151" x2="16.5" y2="179" class="sgl"/><line x1="70.5" y1="97" x2="70.5" y2="120" class="sgl"/><line x1="70.5" y1="183" x2="70.5" y2="215" class="sgl"/><line x1="88.5" y1="25" x2="88.5" y2="53" class="sgl"/><line x1="124.5" y1="151" x2="124.5" y2="179" class="sgl"/><line x1="142.5" y1="57" x2="142.5" y2="93" class="sgl"/><line x1="160.5" y1="151" x2="160.5" y2="179" class="sgl"/><line x1="196.5" y1="25" x2="196.5" y2="53" class="sgl"/><line x1="214.5" y1="97" x2="214.5" y2="120" class="sgl"/><line x1="268.5" y1="151" x2="268.5" y2="179" class="sgl"/><line x1="70.5" y1="120" x2="70.5" y2="141" class="sgl shaft"/><polygon points="66.5,139 74.5,139 70.5,147" class="head"/><line x1="214.5" y1="120" x2="214.5" y2="141" class="sgl shaft"/><polygon points="210.5,139 218.5,139 214.5,147" class="head"/><line x1="138" y1="165" x2="130.5" y2="165" class="sgl shaft"/><polygon points="132.5,161 132.5,169 124.5,165" class="head"/><line x1="102" y1="219" x2="105" y2="219" class="sgl shaft"/><polygon points="103,215 103,223 111,219" class="head"/><text x="115.5" y="44">G</text><text x="124.5" y="44">a</text><text x="133.5" y="44">t</text><text x="142.5" y="44">e</text><text x="151.5" y="44">w</text><text x="160.5" y="44">a</text><text x="169.5" y="44">y</text><text x="34.5" y="170">O</text><text x="43.5" y="170">r</text><text x="52.5" y="170">d</text><text x="61.5" y="170">e</text><text x="70.5" y="170">r</text><text x="79.5" y="170">s</text><text x="178.5" y="170">P</text><text x="187.5" y="170">a</text><text x="196.5" y="170">y</text><text x="205.5" y="170">m</text><text x="214.5" y="170">e</text><text x="223.5" y="170">n</text><text x="232.5" y="170">t</text><text x="241.5" y="170">s</text><text x="124.5" y="224">a</text><text x="133.5" y="224">u</text><text x="142.5" y="224">d</text><text x="151.5" y="224">i</text><text x="160.5" y="224">t</text><text x="169.5" y="224">.</text><text x="178.5" y="224">l</text><text x="187.5" y="224">o</text><text x="196.5" y="224">g</text></svg>
