<svg xmlns="http://www.w3.org/2000/svg" viewBox="0 0 1140 240" width="1140" height="240" role="img" data-cell="9x18" data-pad="12" data-generator="ascii2svg 1.16.1"><title>ascii2svg</title><style>.sgl{stroke-width:1.4;stroke-linecap:round;stroke-linejoin:round;fill:none}.dbl{stroke-width:5;stroke-linecap:round;stroke-linejoin:round;fill:none}.dbl-gap{stroke-width:2;stroke-linecap:round;stroke-linejoin:round;fill:none}.head{stroke-width:1;stroke-linejoin:round}text{font:14px ui-monospace,SFMono-Regular,Menlo,Consolas,'DejaVu Sans Mono',monospace;text-anchor:middle;white-space:pre}.dash.n2{stroke-dasharray:4.2 4.8}.dash.n3{stroke-dasharray:2.6 3.4}.dash.n4{stroke-dasharray:1.4 3.1}.uml{stroke-width:1.2;stroke-linejoin:round}.ring{stroke-width:1.3}.foot{fill:none;stroke-width:1.4;stroke-linecap:round;stroke-linejoin:round}.blk{shape-rendering:crispEdges}.k3{fill-opacity:.75}.k2{fill-opacity:.5}.k1{fill-opacity:.28}.fill{transition:fill .25s}text,line,path,polygon,circle,.blk{pointer-events:none}.bg,.fill,.plate{fill:#ffffff}.sgl,.dbl{stroke:#1f2328}.dbl-gap{stroke:#ffffff}.head{fill:#1f2328;stroke:#1f2328}text{fill:#1f2328}.glow{fill:#000000;fill-opacity:0.0396}.shadow{fill:#000}.blk{fill:#1f2328}.uml,.ring{fill:#ffffff;stroke:#1f2328}.uml.solid{fill:#1f2328}.foot{stroke:#1f2328}.shaft{stroke:#0969da}.head{fill:#0969da;stroke:#0969da}.blk{fill:#0969da}.uml{stroke:#0969da}.uml.solid{fill:#0969da}.fill.tn{fill:#f6f8fa}.fill.t0c{fill:#f1f8ff}.fill.t0l{fill:#dbeeff}.fill.t1c{fill:#f0fbf3}.fill.t1l{fill:#d4f5de}.fill.t2c{fill:#f8f4ff}.fill.t2l{fill:#ebdfff}.fill.t3c{fill:#fff7f0}.fill.t3l{fill:#ffe6d1}.fill.t4c{fill:#fff4f9}.fill.t4l{fill:#ffdcec}.fill.t5c{fill:#effbfa}.fill.t5l{fill:#cef3ef}.fill:hover{fill:#e2edfc}@media (prefers-color-scheme:dark){.bg,.fill,.plate{fill:#0d1117}.sgl,.dbl{stroke:#e6edf3}.dbl-gap{stroke:#0d1117}.head{fill:#e6edf3;stroke:#e6edf3}text{fill:#e6edf3}.glow{fill:#ffffff;fill-opacity:0.0239}.shadow{fill:#000}.blk{fill:#e6edf3}.uml,.ring{fill:#0d1117;stroke:#e6edf3}.uml.solid{fill:#e6edf3}.foot{stroke:#e6edf3}.shaft{stroke:#58a6ff}.head{fill:#58a6ff;stroke:#58a6ff}.blk{fill:#58a6ff}.uml{stroke:#58a6ff}.uml.solid{fill:#58a6ff}.fill.tn{fill:#151b23}.fill.t0c{fill:#0f1a2b}.fill.t0l{fill:#15325a}.fill.t1c{fill:#0e1f16}.fill.t1l{fill:#16402a}.fill.t2c{fill:#1b1530}.fill.t2l{fill:#34245a}.fill.t3c{fill:#23180e}.fill.t3l{fill:#4a2e14}.fill.t4c{fill:#241421}.fill.t4l{fill:#4a1f3a}.fill.t5c{fill:#0c2023}.fill.t5l{fill:#124042}.fill:hover{fill:#1c2d45}}</style><rect width="100%" height="100%" fill="#ffffff" class="bg"/><rect x="198.5" y="141.5" width="203" height="86" rx="11" class="glow"/><rect x="199.5" y="142.5" width="201" height="84" rx="10" class="glow"/><rect x="200.5" y="143.5" width="199" height="82" rx="9" class="glow"/><rect x="201.5" y="144.5" width="197" height="80" rx="8" class="glow"/><rect x="202.5" y="145.5" width="195" height="78" rx="7" class="glow"/><rect x="203.5" y="146.5" width="193" height="76" rx="6" class="glow"/><rect x="204.5" y="147.5" width="191" height="74" rx="5" class="glow"/><rect x="205.5" y="147" width="189" height="72" rx="4" class="fill t0l"/><rect x="468.5" y="141.5" width="203" height="86" rx="11" class="glow"/><rect x="469.5" y="142.5" width="201" height="84" rx="10" class="glow"/><rect x="470.5" y="143.5" width="199" height="82" rx="9" class="glow"/><rect x="471.5" y="144.5" width="197" height="80" rx="8" class="glow"/><rect x="472.5" y="145.5" width="195" height="78" rx="7" class="glow"/><rect x="473.5" y="146.5" width="193" height="76" rx="6" class="glow"/><rect x="474.5" y="147.5" width="191" height="74" rx="5" class="glow"/><rect x="475.5" y="147" width="189" height="72" rx="4" class="fill t1l"/><rect x="738.5" y="141.5" width="203" height="86" rx="11" class="glow"/><rect x="739.5" y="142.5" width="201" height="84" rx="10" class="glow"/><rect x="740.5" y="143.5" width="199" height="82" rx="9" class="glow"/><rect x="741.5" y="144.5" width="197" height="80" rx="8" class="glow"/><rect x="742.5" y="145.5" width="195" height="78" rx="7" class="glow"/><rect x="743.5" y="146.5" width="193" height="76" rx="6" class="glow"/><rect x="744.5" y="147.5" width="191" height="74" rx="5" class="glow"/><rect x="745.5" y="147" width="189" height="72" rx="4" class="fill t2l"/><rect x="30" y="12" width="54" height="18" class="blk k4"/><rect x="156" y="12" width="72" height="18" class="blk k4"/><rect x="282" y="12" width="72" height="18" class="blk k4"/><rect x="390" y="12" width="90" height="18" class="blk k4"/><rect x="516" y="12" width="90" height="18" class="blk k4"/><rect x="642" y="12" width="72" height="18" class="blk k4"/><rect x="786" y="12" width="72" height="18" class="blk k4"/><rect x="894" y="12" width="18" height="18" class="blk k4"/><rect x="966" y="12" width="18" height="18" class="blk k4"/><rect x="1038" y="12" width="72" height="18" class="blk k4"/><rect x="12" y="30" width="18" height="18" class="blk k4"/><rect x="48" y="30" width="36" height="18" class="blk k1"/><rect x="84" y="30" width="18" height="18" class="blk k4"/><rect x="138" y="30" width="18" height="18" class="blk k4"/><rect x="174" y="30" width="72" height="18" class="blk k1"/><rect x="264" y="30" width="18" height="18" class="blk k4"/><rect x="300" y="30" width="72" height="18" class="blk k1"/><rect x="408" y="30" width="18" height="18" class="blk k1"/><rect x="426" y="30" width="18" height="18" class="blk k4"/><rect x="444" y="30" width="54" height="18" class="blk k1"/><rect x="534" y="30" width="18" height="18" class="blk k1"/><rect x="552" y="30" width="18" height="18" class="blk k4"/><rect x="570" y="30" width="54" height="18" class="blk k1"/><rect x="660" y="30" width="54" height="18" class="blk k1"/><rect x="714" y="30" width="18" height="18" class="blk k4"/><rect x="768" y="30" width="18" height="18" class="blk k4"/><rect x="804" y="30" width="72" height="18" class="blk k1"/><rect x="894" y="30" width="18" height="18" class="blk k4"/><rect x="912" y="30" width="18" height="18" class="blk k1"/><rect x="966" y="30" width="18" height="18" class="blk k4"/><rect x="984" y="30" width="18" height="18" class="blk k1"/><rect x="1020" y="30" width="18" height="18" class="blk k4"/><rect x="1056" y="30" width="72" height="18" class="blk k1"/><rect x="12" y="48" width="90" height="18" class="blk k4"/><rect x="102" y="48" width="18" height="18" class="blk k1"/><rect x="156" y="48" width="54" height="18" class="blk k4"/><rect x="264" y="48" width="18" height="18" class="blk k4"/><rect x="282" y="48" width="18" height="18" class="blk k1"/><rect x="426" y="48" width="18" height="18" class="blk k4"/><rect x="444" y="48" width="18" height="18" class="blk k1"/><rect x="552" y="48" width="18" height="18" class="blk k4"/><rect x="570" y="48" width="18" height="18" class="blk k1"/><rect x="660" y="48" width="54" height="18" class="blk k4"/><rect x="732" y="48" width="18" height="18" class="blk k1"/><rect x="786" y="48" width="54" height="18" class="blk k4"/><rect x="894" y="48" width="18" height="18" class="blk k4"/><rect x="912" y="48" width="18" height="18" class="blk k1"/><rect x="966" y="48" width="18" height="18" class="blk k4"/><rect x="984" y="48" width="18" height="18" class="blk k1"/><rect x="1020" y="48" width="18" height="18" class="blk k4"/><rect x="1038" y="48" width="18" height="18" class="blk k1"/><rect x="1074" y="48" width="36" height="18" class="blk k4"/><rect x="12" y="66" width="18" height="18" class="blk k4"/><rect x="30" y="66" width="54" height="18" class="blk k1"/><rect x="84" y="66" width="18" height="18" class="blk k4"/><rect x="102" y="66" width="18" height="18" class="blk k1"/><rect x="174" y="66" width="36" height="18" class="blk k1"/><rect x="210" y="66" width="18" height="18" class="blk k4"/><rect x="264" y="66" width="18" height="18" class="blk k4"/><rect x="282" y="66" width="18" height="18" class="blk k1"/><rect x="426" y="66" width="18" height="18" class="blk k4"/><rect x="444" y="66" width="18" height="18" class="blk k1"/><rect x="552" y="66" width="18" height="18" class="blk k4"/><rect x="570" y="66" width="18" height="18" class="blk k1"/><rect x="642" y="66" width="18" height="18" class="blk k4"/><rect x="678" y="66" width="54" height="18" class="blk k1"/><rect x="804" y="66" width="36" height="18" class="blk k1"/><rect x="840" y="66" width="18" height="18" class="blk k4"/><rect x="912" y="66" width="18" height="18" class="blk k4"/><rect x="948" y="66" width="18" height="18" class="blk k4"/><rect x="984" y="66" width="18" height="18" class="blk k1"/><rect x="1020" y="66" width="18" height="18" class="blk k4"/><rect x="1038" y="66" width="18" height="18" class="blk k1"/><rect x="1092" y="66" width="18" height="18" class="blk k4"/><rect x="1110" y="66" width="18" height="18" class="blk k1"/><rect x="12" y="84" width="18" height="18" class="blk k4"/><rect x="30" y="84" width="18" height="18" class="blk k1"/><rect x="84" y="84" width="18" height="18" class="blk k4"/><rect x="102" y="84" width="18" height="18" class="blk k1"/><rect x="138" y="84" width="72" height="18" class="blk k4"/><rect x="228" y="84" width="18" height="18" class="blk k1"/><rect x="282" y="84" width="72" height="18" class="blk k4"/><rect x="390" y="84" width="90" height="18" class="blk k4"/><rect x="516" y="84" width="90" height="18" class="blk k4"/><rect x="642" y="84" width="90" height="18" class="blk k4"/><rect x="768" y="84" width="72" height="18" class="blk k4"/><rect x="858" y="84" width="18" height="18" class="blk k1"/><rect x="930" y="84" width="18" height="18" class="blk k4"/><rect x="966" y="84" width="18" height="18" class="blk k1"/><rect x="1038" y="84" width="54" height="18" class="blk k4"/><rect x="1110" y="84" width="18" height="18" class="blk k1"/><rect x="30" y="102" width="18" height="18" class="blk k1"/><rect x="102" y="102" width="18" height="18" class="blk k1"/><rect x="156" y="102" width="72" height="18" class="blk k1"/><rect x="300" y="102" width="72" height="18" class="blk k1"/><rect x="408" y="102" width="90" height="18" class="blk k1"/><rect x="534" y="102" width="90" height="18" class="blk k1"/><rect x="660" y="102" width="90" height="18" class="blk k1"/><rect x="786" y="102" width="72" height="18" class="blk k1"/><rect x="948" y="102" width="18" height="18" class="blk k1"/><rect x="1056" y="102" width="54" height="18" class="blk k1"/><path d="M209.5 147Q205.5 147 205.5 151M390.5 147Q394.5 147 394.5 151M479.5 147Q475.5 147 475.5 151M660.5 147Q664.5 147 664.5 151M749.5 147Q745.5 147 745.5 151M930.5 147Q934.5 147 934.5 151M209.5 219Q205.5 219 205.5 215M390.5 219Q394.5 219 394.5 215M479.5 219Q475.5 219 475.5 215M660.5 219Q664.5 219 664.5 215M749.5 219Q745.5 219 745.5 215M930.5 219Q934.5 219 934.5 215M209.5 147H390.5M479.5 147H660.5M749.5 147H930.5M394.5 183H462M664.5 183H732M209.5 219H390.5M479.5 219H660.5M749.5 219H930.5M205.5 151V215M394.5 151V215M475.5 151V215M664.5 151V215M745.5 151V215M934.5 151V215" class="sgl"/><line x1="462" y1="183" x2="469.5" y2="183" class="sgl shaft"/><polygon points="467.5,179 467.5,187 475.5,183" class="head"/><line x1="732" y1="183" x2="739.5" y2="183" class="sgl shaft"/><polygon points="737.5,179 737.5,187 745.5,183" class="head"/><text x="223.5 232.5 241.5 250.5 259.5 268.5 277.5 286.5 295.5 304.5 313.5 322.5 331.5 340.5 349.5 358.5 367.5" y="170">your text diagram</text><text x="529.5 538.5 547.5 556.5 565.5 574.5 583.5 592.5 601.5" y="170">ascii2svg</text><text x="772.5 781.5 790.5 799.5 808.5 817.5 826.5 835.5 844.5 853.5 862.5 871.5 880.5 889.5 898.5 907.5" y="170">SVG, exactly 1:1</text><text x="241.5 250.5 259.5 268.5 277.5 286.5 295.5 304.5 313.5 322.5 331.5 340.5 349.5 358.5" y="188">(or your AI's)</text><text x="502.5 511.5 520.5 529.5 538.5 547.5 556.5 565.5 574.5 583.5 592.5 601.5 610.5 619.5 628.5" y="188">repair · draw ·</text><text x="772.5 781.5 790.5 799.5 808.5 817.5 826.5 835.5 844.5 853.5 862.5 871.5 880.5 889.5 898.5" y="188">animated, light</text><text x="529.5 538.5 547.5 556.5 565.5 574.5 583.5 592.5 601.5 610.5" y="206">self-check</text><text x="808.5 817.5 826.5 835.5 844.5 853.5 862.5 871.5" y="206">and dark</text></svg>
