<svg xmlns="http://www.w3.org/2000/svg" viewBox="0 0 636 474" width="636" height="474" role="img" data-cell="9x18" data-pad="12" data-generator="ascii2svg 1.17.0"><title>Cache lookup</title><style>.sgl{stroke-width:1.4;stroke-linecap:round;stroke-linejoin:round;fill:none}.dbl{stroke-width:5;stroke-linecap:round;stroke-linejoin:round;fill:none}.dbl-gap{stroke-width:2;stroke-linecap:round;stroke-linejoin:round;fill:none}.head{stroke-width:1;stroke-linejoin:round}text{font:14px ui-monospace,SFMono-Regular,Menlo,Consolas,'DejaVu Sans Mono',monospace;text-anchor:middle;white-space:pre}.dash.n2{stroke-dasharray:4.2 4.8}.dash.n3{stroke-dasharray:2.6 3.4}.dash.n4{stroke-dasharray:1.4 3.1}.uml{stroke-width:1.2;stroke-linejoin:round}.ring{stroke-width:1.3}.foot{fill:none;stroke-width:1.4;stroke-linecap:round;stroke-linejoin:round}.blk{shape-rendering:crispEdges}.k3{fill-opacity:.75}.k2{fill-opacity:.5}.k1{fill-opacity:.28}.fill{transition:fill .25s}text,line,path,polygon,circle,.blk{pointer-events:none}@keyframes a2s-gap{0%{stroke-dasharray:1 2;stroke-dashoffset:1.01}60%,100%{stroke-dasharray:1 2;stroke-dashoffset:0}}@keyframes a2s-fade{0%{opacity:0}}@keyframes a2s-pop{0%{opacity:0;transform:scale(.2)}}@keyframes a2s-grow{0%{transform:scaleX(0)}}.blk{animation:a2s-grow .7s cubic-bezier(.3,.7,.4,1) backwards}.blk{transform-box:fill-box;transform-origin:left}.sgl,.dbl{animation:a2s-draw .6s cubic-bezier(.3,.7,.4,1) backwards}.dbl-gap{animation:a2s-gap .6s cubic-bezier(.3,.7,.4,1) backwards}.sgl.shaft,.sgl.dash{animation:a2s-fade .3s ease-out backwards}.head,.uml,.ring{animation:a2s-pop .45s cubic-bezier(.3,1.6,.5,1) backwards}.foot{animation:a2s-fade .4s ease-out backwards}.head,.uml,.ring{transform-box:fill-box;transform-origin:center}text{animation:a2s-fade .5s ease-out backwards}.glow,.shadow,.fill,.plate{animation:a2s-fade .8s ease-out backwards}.pulse .halo{fill-opacity:.28}@media (prefers-reduced-motion:reduce){*{animation:none!important}.pulse{display:none}}.r1{animation-delay:0.12s}.r4{animation-delay:0.26s}.r6{animation-delay:0.35s}.r8{animation-delay:0.44s}.r12{animation-delay:0.62s}.r16{animation-delay:0.80s}.r19{animation-delay:0.94s}.r22{animation-delay:1.07s}.bg,.fill,.plate{fill:#ffffff}.sgl,.dbl{stroke:#1f2328}.dbl-gap{stroke:#ffffff}.head{fill:#1f2328;stroke:#1f2328}text{fill:#1f2328}.glow{fill:#000000;fill-opacity:0.0396}.shadow{fill:#000}.blk{fill:#1f2328}.uml,.ring{fill:#ffffff;stroke:#1f2328}.uml.solid{fill:#1f2328}.foot{stroke:#1f2328}.shaft{stroke:#0969da}.head{fill:#0969da;stroke:#0969da}.blk{fill:#0969da}.uml{stroke:#0969da}.uml.solid{fill:#0969da}.fill.tn{fill:#f6f8fa}.fill.t0c{fill:#f1f8ff}.fill.t0l{fill:#dbeeff}.fill.t1c{fill:#f0fbf3}.fill.t1l{fill:#d4f5de}.fill.t2c{fill:#f8f4ff}.fill.t2l{fill:#ebdfff}.fill.t3c{fill:#fff7f0}.fill.t3l{fill:#ffe6d1}.fill.t4c{fill:#fff4f9}.fill.t4l{fill:#ffdcec}.fill.t5c{fill:#effbfa}.fill.t5l{fill:#cef3ef}.fill:hover{fill:#e2edfc}@keyframes a2s-draw{0%{stroke-dasharray:1 2;stroke-dashoffset:1.01;stroke:#0969da}60%{stroke-dasharray:1 2;stroke-dashoffset:0;stroke:#0969da}100%{stroke-dasharray:1 2;stroke-dashoffset:0}}.pulse circle{fill:#0969da}.a2s-live.sgl,.a2s-live.dbl{stroke:#0969da}@media (prefers-color-scheme:dark){.bg,.fill,.plate{fill:#0d1117}.sgl,.dbl{stroke:#e6edf3}.dbl-gap{stroke:#0d1117}.head{fill:#e6edf3;stroke:#e6edf3}text{fill:#e6edf3}.glow{fill:#ffffff;fill-opacity:0.0239}.shadow{fill:#000}.blk{fill:#e6edf3}.uml,.ring{fill:#0d1117;stroke:#e6edf3}.uml.solid{fill:#e6edf3}.foot{stroke:#e6edf3}.shaft{stroke:#58a6ff}.head{fill:#58a6ff;stroke:#58a6ff}.blk{fill:#58a6ff}.uml{stroke:#58a6ff}.uml.solid{fill:#58a6ff}.fill.tn{fill:#151b23}.fill.t0c{fill:#0f1a2b}.fill.t0l{fill:#15325a}.fill.t1c{fill:#0e1f16}.fill.t1l{fill:#16402a}.fill.t2c{fill:#1b1530}.fill.t2l{fill:#34245a}.fill.t3c{fill:#23180e}.fill.t3l{fill:#4a2e14}.fill.t4c{fill:#241421}.fill.t4l{fill:#4a1f3a}.fill.t5c{fill:#0c2023}.fill.t5l{fill:#124042}.fill:hover{fill:#1c2d45}@keyframes a2s-draw{0%{stroke-dasharray:1 2;stroke-dashoffset:1.01;stroke:#58a6ff}60%{stroke-dasharray:1 2;stroke-dashoffset:0;stroke:#58a6ff}100%{stroke-dasharray:1 2;stroke-dashoffset:0}}.pulse circle{fill:#58a6ff}.a2s-live.sgl,.a2s-live.dbl{stroke:#58a6ff}}</style><rect width="100%" height="100%" fill="#ffffff" class="bg"/><rect x="9.5" y="15.5" width="95" height="50" rx="11" class="glow" style="animation-delay:0.00s"/><rect x="10.5" y="16.5" width="93" height="48" rx="10" class="glow" style="animation-delay:0.00s"/><rect x="11.5" y="17.5" width="91" height="46" rx="9" class="glow" style="animation-delay:0.00s"/><rect x="12.5" y="18.5" width="89" height="44" rx="8" class="glow" style="animation-delay:0.00s"/><rect x="13.5" y="19.5" width="87" height="42" rx="7" class="glow" style="animation-delay:0.00s"/><rect x="14.5" y="20.5" width="85" height="40" rx="6" class="glow" style="animation-delay:0.00s"/><rect x="15.5" y="21.5" width="83" height="38" rx="5" class="glow" style="animation-delay:0.00s"/><rect x="16.5" y="21" width="81" height="36" rx="4" class="fill t0l" style="animation-delay:0.00s"/><rect x="180.5" y="15.5" width="122" height="50" rx="11" class="glow" style="animation-delay:0.00s"/><rect x="181.5" y="16.5" width="120" height="48" rx="10" class="glow" style="animation-delay:0.00s"/><rect x="182.5" y="17.5" width="118" height="46" rx="9" class="glow" style="animation-delay:0.00s"/><rect x="183.5" y="18.5" width="116" height="44" rx="8" class="glow" style="animation-delay:0.00s"/><rect x="184.5" y="19.5" width="114" height="42" rx="7" class="glow" style="animation-delay:0.00s"/><rect x="185.5" y="20.5" width="112" height="40" rx="6" class="glow" style="animation-delay:0.00s"/><rect x="186.5" y="21.5" width="110" height="38" rx="5" class="glow" style="animation-delay:0.00s"/><rect x="187.5" y="21" width="108" height="36" rx="4" class="fill t1l" style="animation-delay:0.00s"/><rect x="378.5" y="15.5" width="104" height="50" rx="11" class="glow" style="animation-delay:0.00s"/><rect x="379.5" y="16.5" width="102" height="48" rx="10" class="glow" style="animation-delay:0.00s"/><rect x="380.5" y="17.5" width="100" height="46" rx="9" class="glow" style="animation-delay:0.00s"/><rect x="381.5" y="18.5" width="98" height="44" rx="8" class="glow" style="animation-delay:0.00s"/><rect x="382.5" y="19.5" width="96" height="42" rx="7" class="glow" style="animation-delay:0.00s"/><rect x="383.5" y="20.5" width="94" height="40" rx="6" class="glow" style="animation-delay:0.00s"/><rect x="384.5" y="21.5" width="92" height="38" rx="5" class="glow" style="animation-delay:0.00s"/><rect x="385.5" y="21" width="90" height="36" rx="4" class="fill t2l" style="animation-delay:0.00s"/><rect x="171.5" y="213.5" width="140" height="50" rx="11" class="glow" style="animation-delay:0.49s"/><rect x="172.5" y="214.5" width="138" height="48" rx="10" class="glow" style="animation-delay:0.49s"/><rect x="173.5" y="215.5" width="136" height="46" rx="9" class="glow" style="animation-delay:0.49s"/><rect x="174.5" y="216.5" width="134" height="44" rx="8" class="glow" style="animation-delay:0.49s"/><rect x="175.5" y="217.5" width="132" height="42" rx="7" class="glow" style="animation-delay:0.49s"/><rect x="176.5" y="218.5" width="130" height="40" rx="6" class="glow" style="animation-delay:0.49s"/><rect x="177.5" y="219.5" width="128" height="38" rx="5" class="glow" style="animation-delay:0.49s"/><rect x="178.5" y="219" width="126" height="36" rx="4" class="fill t3l" style="animation-delay:0.49s"/><rect x="81.5" y="339.5" width="131" height="50" rx="11" class="glow" style="animation-delay:0.81s"/><rect x="82.5" y="340.5" width="129" height="48" rx="10" class="glow" style="animation-delay:0.81s"/><rect x="83.5" y="341.5" width="127" height="46" rx="9" class="glow" style="animation-delay:0.81s"/><rect x="84.5" y="342.5" width="125" height="44" rx="8" class="glow" style="animation-delay:0.81s"/><rect x="85.5" y="343.5" width="123" height="42" rx="7" class="glow" style="animation-delay:0.81s"/><rect x="86.5" y="344.5" width="121" height="40" rx="6" class="glow" style="animation-delay:0.81s"/><rect x="87.5" y="345.5" width="119" height="38" rx="5" class="glow" style="animation-delay:0.81s"/><rect x="88.5" y="345" width="117" height="36" rx="4" class="fill t4l" style="animation-delay:0.81s"/><rect x="288.5" y="339.5" width="140" height="50" rx="11" class="glow" style="animation-delay:0.81s"/><rect x="289.5" y="340.5" width="138" height="48" rx="10" class="glow" style="animation-delay:0.81s"/><rect x="290.5" y="341.5" width="136" height="46" rx="9" class="glow" style="animation-delay:0.81s"/><rect x="291.5" y="342.5" width="134" height="44" rx="8" class="glow" style="animation-delay:0.81s"/><rect x="292.5" y="343.5" width="132" height="42" rx="7" class="glow" style="animation-delay:0.81s"/><rect x="293.5" y="344.5" width="130" height="40" rx="6" class="glow" style="animation-delay:0.81s"/><rect x="294.5" y="345.5" width="128" height="38" rx="5" class="glow" style="animation-delay:0.81s"/><rect x="295.5" y="345" width="126" height="36" rx="4" class="fill t5l" style="animation-delay:0.81s"/><rect x="468.5" y="339.5" width="158" height="50" rx="11" class="glow" style="animation-delay:0.81s"/><rect x="469.5" y="340.5" width="156" height="48" rx="10" class="glow" style="animation-delay:0.81s"/><rect x="470.5" y="341.5" width="154" height="46" rx="9" class="glow" style="animation-delay:0.81s"/><rect x="471.5" y="342.5" width="152" height="44" rx="8" class="glow" style="animation-delay:0.81s"/><rect x="472.5" y="343.5" width="150" height="42" rx="7" class="glow" style="animation-delay:0.81s"/><rect x="473.5" y="344.5" width="148" height="40" rx="6" class="glow" style="animation-delay:0.81s"/><rect x="474.5" y="345.5" width="146" height="38" rx="5" class="glow" style="animation-delay:0.81s"/><rect x="475.5" y="345" width="144" height="36" rx="4" class="fill t0l" style="animation-delay:0.81s"/><path d="M20.5 21Q16.5 21 16.5 25" class="sgl" pathLength="1" style="animation-delay:0.00s;animation-duration:0.25s"/><path d="M93.5 21Q97.5 21 97.5 25" class="sgl" pathLength="1" style="animation-delay:0.00s;animation-duration:0.25s"/><path d="M191.5 21Q187.5 21 187.5 25" class="sgl" pathLength="1" style="animation-delay:0.00s;animation-duration:0.25s"/><path d="M291.5 21Q295.5 21 295.5 25" class="sgl" pathLength="1" style="animation-delay:0.00s;animation-duration:0.25s"/><path d="M389.5 21Q385.5 21 385.5 25" class="sgl" pathLength="1" style="animation-delay:0.00s;animation-duration:0.25s"/><path d="M471.5 21Q475.5 21 475.5 25" class="sgl" pathLength="1" style="animation-delay:0.00s;animation-duration:0.25s"/><path d="M20.5 57Q16.5 57 16.5 53" class="sgl" pathLength="1" style="animation-delay:0.09s;animation-duration:0.25s"/><path d="M93.5 57Q97.5 57 97.5 53" class="sgl" pathLength="1" style="animation-delay:0.09s;animation-duration:0.25s"/><path d="M191.5 57Q187.5 57 187.5 53" class="sgl" pathLength="1" style="animation-delay:0.09s;animation-duration:0.25s"/><path d="M291.5 57Q295.5 57 295.5 53" class="sgl" pathLength="1" style="animation-delay:0.09s;animation-duration:0.25s"/><path d="M389.5 57Q385.5 57 385.5 53" class="sgl" pathLength="1" style="animation-delay:0.09s;animation-duration:0.25s"/><path d="M471.5 57Q475.5 57 475.5 53" class="sgl" pathLength="1" style="animation-delay:0.09s;animation-duration:0.25s"/><path d="M182.5 219Q178.5 219 178.5 223" class="sgl" pathLength="1" style="animation-delay:0.49s;animation-duration:0.25s"/><path d="M300.5 219Q304.5 219 304.5 223" class="sgl" pathLength="1" style="animation-delay:0.49s;animation-duration:0.25s"/><path d="M182.5 255Q178.5 255 178.5 251" class="sgl" pathLength="1" style="animation-delay:0.58s;animation-duration:0.25s"/><path d="M300.5 255Q304.5 255 304.5 251" class="sgl" pathLength="1" style="animation-delay:0.58s;animation-duration:0.25s"/><path d="M146.5 291Q142.5 291 142.5 295" class="sgl" pathLength="1" style="animation-delay:0.68s;animation-duration:0.25s"/><path d="M354.5 291Q358.5 291 358.5 295" class="sgl" pathLength="1" style="animation-delay:0.68s;animation-duration:0.25s"/><path d="M92.5 345Q88.5 345 88.5 349" class="sgl" pathLength="1" style="animation-delay:0.81s;animation-duration:0.25s"/><path d="M201.5 345Q205.5 345 205.5 349" class="sgl" pathLength="1" style="animation-delay:0.81s;animation-duration:0.25s"/><path d="M299.5 345Q295.5 345 295.5 349" class="sgl" pathLength="1" style="animation-delay:0.81s;animation-duration:0.25s"/><path d="M417.5 345Q421.5 345 421.5 349" class="sgl" pathLength="1" style="animation-delay:0.81s;animation-duration:0.25s"/><path d="M479.5 345Q475.5 345 475.5 349" class="sgl" pathLength="1" style="animation-delay:0.81s;animation-duration:0.25s"/><path d="M615.5 345Q619.5 345 619.5 349" class="sgl" pathLength="1" style="animation-delay:0.81s;animation-duration:0.25s"/><path d="M92.5 381Q88.5 381 88.5 377" class="sgl" pathLength="1" style="animation-delay:0.90s;animation-duration:0.25s"/><path d="M201.5 381Q205.5 381 205.5 377" class="sgl" pathLength="1" style="animation-delay:0.90s;animation-duration:0.25s"/><path d="M299.5 381Q295.5 381 295.5 377" class="sgl" pathLength="1" style="animation-delay:0.90s;animation-duration:0.25s"/><path d="M417.5 381Q421.5 381 421.5 377" class="sgl" pathLength="1" style="animation-delay:0.90s;animation-duration:0.25s"/><path d="M479.5 381Q475.5 381 475.5 377" class="sgl" pathLength="1" style="animation-delay:0.90s;animation-duration:0.25s"/><path d="M615.5 381Q619.5 381 619.5 377" class="sgl" pathLength="1" style="animation-delay:0.90s;animation-duration:0.25s"/><path d="M354.5 435Q358.5 435 358.5 431" class="sgl" pathLength="1" style="animation-delay:1.03s;animation-duration:0.25s"/><line x1="20.5" y1="21" x2="93.5" y2="21" class="sgl" pathLength="1" style="animation-delay:0.00s;animation-duration:0.25s"/><line x1="191.5" y1="21" x2="291.5" y2="21" class="sgl" pathLength="1" style="animation-delay:0.00s;animation-duration:0.25s"/><line x1="389.5" y1="21" x2="471.5" y2="21" class="sgl" pathLength="1" style="animation-delay:0.00s;animation-duration:0.25s"/><line x1="20.5" y1="57" x2="93.5" y2="57" class="sgl" pathLength="1" style="animation-delay:0.09s;animation-duration:0.25s"/><line x1="191.5" y1="57" x2="291.5" y2="57" class="sgl" pathLength="1" style="animation-delay:0.09s;animation-duration:0.25s"/><line x1="389.5" y1="57" x2="471.5" y2="57" class="sgl" pathLength="1" style="animation-delay:0.09s;animation-duration:0.25s"/><line x1="53.2" y1="111" x2="228" y2="111" class="sgl" pathLength="1" style="animation-delay:0.23s;animation-duration:0.29s"/><line x1="242.2" y1="147" x2="417" y2="147" class="sgl" pathLength="1" style="animation-delay:0.32s;animation-duration:0.29s"/><line x1="255" y1="183" x2="429.8" y2="183" class="sgl" pathLength="1" style="animation-delay:0.41s;animation-duration:0.29s"/><line x1="182.5" y1="219" x2="300.5" y2="219" class="sgl" pathLength="1" style="animation-delay:0.49s;animation-duration:0.25s"/><line x1="182.5" y1="255" x2="300.5" y2="255" class="sgl" pathLength="1" style="animation-delay:0.58s;animation-duration:0.25s"/><line x1="146.5" y1="291" x2="354.5" y2="291" class="sgl" pathLength="1" style="animation-delay:0.68s;animation-duration:0.35s"/><line x1="92.5" y1="345" x2="201.5" y2="345" class="sgl" pathLength="1" style="animation-delay:0.81s;animation-duration:0.25s"/><line x1="299.5" y1="345" x2="417.5" y2="345" class="sgl" pathLength="1" style="animation-delay:0.81s;animation-duration:0.25s"/><line x1="479.5" y1="345" x2="615.5" y2="345" class="sgl" pathLength="1" style="animation-delay:0.81s;animation-duration:0.25s"/><line x1="421.5" y1="363" x2="462" y2="363" class="sgl" pathLength="1" style="animation-delay:0.85s;animation-duration:0.25s"/><line x1="92.5" y1="381" x2="201.5" y2="381" class="sgl" pathLength="1" style="animation-delay:0.90s;animation-duration:0.25s"/><line x1="299.5" y1="381" x2="417.5" y2="381" class="sgl" pathLength="1" style="animation-delay:0.90s;animation-duration:0.25s"/><line x1="479.5" y1="381" x2="615.5" y2="381" class="sgl" pathLength="1" style="animation-delay:0.90s;animation-duration:0.25s"/><line x1="66" y1="435" x2="354.5" y2="435" class="sgl" pathLength="1" style="animation-delay:1.03s;animation-duration:0.48s"/><line x1="16.5" y1="25" x2="16.5" y2="53" class="sgl" pathLength="1" style="animation-delay:0.03s;animation-duration:0.25s"/><line x1="52.5" y1="57" x2="52.5" y2="462" class="sgl" pathLength="1" style="animation-delay:0.11s;animation-duration:1.01s"/><line x1="88.5" y1="349" x2="88.5" y2="377" class="sgl" pathLength="1" style="animation-delay:0.84s;animation-duration:0.25s"/><line x1="97.5" y1="25" x2="97.5" y2="53" class="sgl" pathLength="1" style="animation-delay:0.03s;animation-duration:0.25s"/><line x1="142.5" y1="295" x2="142.5" y2="318" class="sgl" pathLength="1" style="animation-delay:0.71s;animation-duration:0.25s"/><line x1="142.5" y1="381" x2="142.5" y2="435" class="sgl" pathLength="1" style="animation-delay:0.92s;animation-duration:0.25s"/><line x1="178.5" y1="223" x2="178.5" y2="251" class="sgl" pathLength="1" style="animation-delay:0.53s;animation-duration:0.25s"/><line x1="187.5" y1="25" x2="187.5" y2="53" class="sgl" pathLength="1" style="animation-delay:0.03s;animation-duration:0.25s"/><line x1="205.5" y1="349" x2="205.5" y2="377" class="sgl" pathLength="1" style="animation-delay:0.84s;animation-duration:0.25s"/><line x1="241.5" y1="57" x2="241.5" y2="219" class="sgl" pathLength="1" style="animation-delay:0.11s;animation-duration:0.41s"/><line x1="241.5" y1="255" x2="241.5" y2="291" class="sgl" pathLength="1" style="animation-delay:0.61s;animation-duration:0.25s"/><line x1="295.5" y1="25" x2="295.5" y2="53" class="sgl" pathLength="1" style="animation-delay:0.03s;animation-duration:0.25s"/><line x1="295.5" y1="349" x2="295.5" y2="377" class="sgl" pathLength="1" style="animation-delay:0.84s;animation-duration:0.25s"/><line x1="304.5" y1="223" x2="304.5" y2="251" class="sgl" pathLength="1" style="animation-delay:0.53s;animation-duration:0.25s"/><line x1="358.5" y1="295" x2="358.5" y2="318" class="sgl" pathLength="1" style="animation-delay:0.71s;animation-duration:0.25s"/><line x1="358.5" y1="381" x2="358.5" y2="431" class="sgl" pathLength="1" style="animation-delay:0.92s;animation-duration:0.25s"/><line x1="385.5" y1="25" x2="385.5" y2="53" class="sgl" pathLength="1" style="animation-delay:0.03s;animation-duration:0.25s"/><line x1="421.5" y1="349" x2="421.5" y2="377" class="sgl" pathLength="1" style="animation-delay:0.84s;animation-duration:0.25s"/><line x1="430.5" y1="57" x2="430.5" y2="210" class="sgl" pathLength="1" style="animation-delay:0.11s;animation-duration:0.38s"/><line x1="475.5" y1="25" x2="475.5" y2="53" class="sgl" pathLength="1" style="animation-delay:0.03s;animation-duration:0.25s"/><line x1="475.5" y1="349" x2="475.5" y2="377" class="sgl" pathLength="1" style="animation-delay:0.84s;animation-duration:0.25s"/><line x1="619.5" y1="349" x2="619.5" y2="377" class="sgl" pathLength="1" style="animation-delay:0.84s;animation-duration:0.25s"/><line x1="228" y1="111" x2="235.5" y2="111" class="sgl shaft" style="animation-delay:0.38s"/><polygon points="233.5,107 233.5,115 241.5,111" class="head" style="animation-delay:0.38s"/><line x1="417" y1="147" x2="424.5" y2="147" class="sgl shaft" style="animation-delay:0.47s"/><polygon points="422.5,143 422.5,151 430.5,147" class="head" style="animation-delay:0.47s"/><line x1="255" y1="183" x2="247.5" y2="183" class="sgl shaft" style="animation-delay:0.56s"/><polygon points="249.5,179 249.5,187 241.5,183" class="head" style="animation-delay:0.56s"/><line x1="142.5" y1="318" x2="142.5" y2="339" class="sgl shaft" style="animation-delay:0.92s"/><polygon points="138.5,337 146.5,337 142.5,345" class="head" style="animation-delay:0.92s"/><line x1="358.5" y1="318" x2="358.5" y2="339" class="sgl shaft" style="animation-delay:0.92s"/><polygon points="354.5,337 362.5,337 358.5,345" class="head" style="animation-delay:0.92s"/><line x1="462" y1="363" x2="469.5" y2="363" class="sgl shaft" style="animation-delay:1.00s"/><polygon points="467.5,359 467.5,367 475.5,363" class="head" style="animation-delay:1.00s"/><line x1="66" y1="435" x2="58.5" y2="435" class="sgl shaft" style="animation-delay:1.12s"/><polygon points="60.5,431 60.5,439 52.5,435" class="head" style="animation-delay:1.12s"/><text x="34.5 43.5 52.5 61.5 70.5 79.5" y="44" class="r1">Client</text><text x="223.5 232.5 241.5" y="44" class="r1">API</text><text x="403.5 412.5 421.5 430.5 439.5" y="44" class="r1">Cache</text><text x="79.5 88.5 97.5 106.5 115.5 124.5 133.5 142.5 151.5 160.5 169.5 178.5 187.5" y="98" class="r4">GET /price/42</text><text x="268.5 277.5 286.5 295.5 304.5 313.5 322.5 331.5 340.5 349.5 358.5 367.5 376.5" y="134" class="r6">lookup sku 42</text><text x="295.5 304.5 313.5 322.5 331.5 340.5 349.5 358.5 367.5 376.5" y="170" class="r8">hit / miss</text><text x="196.5 205.5 214.5 223.5 232.5 241.5 250.5 259.5 268.5 277.5" y="242" class="r12">Cache hit?</text><text x="160.5 169.5 178.5" y="314" class="r16">yes</text><text x="376.5 385.5" y="314" class="r16">no</text><text x="106.5 115.5 124.5 133.5 142.5 151.5 160.5 169.5 178.5 187.5" y="368" class="r19">Use cached</text><text x="313.5 322.5 331.5 340.5 349.5 358.5 367.5 376.5" y="368" class="r19">Query DB</text><text x="493.5 502.5 511.5 520.5 529.5 538.5 547.5 556.5 565.5 574.5 583.5 592.5 601.5" y="368" class="r19">Save to cache</text><text x="70.5 79.5 88.5 97.5 106.5 115.5" y="422" class="r22">200 OK</text><g class="pulse" opacity="0"><circle r="5.5" class="halo"/><circle r="2.6"/><animateMotion path="M57 111L241.5 111" dur="2.13s" begin="2.02s" repeatCount="indefinite" calcMode="linear" keyPoints="0;1;1" keyTimes="0;0.577;1"/><animate attributeName="opacity" values="0;1;1;0;0" keyTimes="0;0.046;0.491;0.577;1" dur="2.13s" begin="2.02s" repeatCount="indefinite"/></g><g class="pulse" opacity="0"><circle r="5.5" class="halo"/><circle r="2.6"/><animateMotion path="M246 147L430.5 147" dur="2.13s" begin="2.02s" repeatCount="indefinite" calcMode="linear" keyPoints="0;1;1" keyTimes="0;0.577;1"/><animate attributeName="opacity" values="0;1;1;0;0" keyTimes="0;0.046;0.491;0.577;1" dur="2.13s" begin="2.02s" repeatCount="indefinite"/></g><g class="pulse" opacity="0"><circle r="5.5" class="halo"/><circle r="2.6"/><animateMotion path="M426 183L241.5 183" dur="2.13s" begin="2.02s" repeatCount="indefinite" calcMode="linear" keyPoints="0;1;1" keyTimes="0;0.577;1"/><animate attributeName="opacity" values="0;1;1;0;0" keyTimes="0;0.046;0.491;0.577;1" dur="2.13s" begin="2.02s" repeatCount="indefinite"/></g><g class="pulse" opacity="0"><circle r="5.5" class="halo"/><circle r="2.6"/><animateMotion path="M241.5 255L241.5 291L142.5 291L142.5 345" dur="2.16s" begin="2.02s" repeatCount="indefinite" calcMode="linear" keyPoints="0;1;1" keyTimes="0;0.583;1"/><animate attributeName="opacity" values="0;1;1;0;0" keyTimes="0;0.047;0.496;0.583;1" dur="2.16s" begin="2.02s" repeatCount="indefinite"/></g><g class="pulse" opacity="0"><circle r="5.5" class="halo"/><circle r="2.6"/><animateMotion path="M241.5 255L241.5 291L358.5 291L358.5 345" dur="2.28s" begin="2.02s" repeatCount="indefinite" calcMode="linear" keyPoints="0;1;1" keyTimes="0;0.605;1"/><animate attributeName="opacity" values="0;1;1;0;0" keyTimes="0;0.048;0.514;0.605;1" dur="2.28s" begin="2.02s" repeatCount="indefinite"/></g><g class="pulse" opacity="0"><circle r="5.5" class="halo"/><circle r="2.6"/><animateMotion path="M421.5 363L475.5 363" dur="1.30s" begin="2.02s" repeatCount="indefinite" calcMode="linear" keyPoints="0;1;1" keyTimes="0;0.308;1"/><animate attributeName="opacity" values="0;1;1;0;0" keyTimes="0;0.025;0.262;0.308;1" dur="1.30s" begin="2.02s" repeatCount="indefinite"/></g><g class="pulse" opacity="0"><circle r="5.5" class="halo"/><circle r="2.6"/><animateMotion path="M358.5 381L358.5 435L52.5 435" dur="3.30s" begin="2.02s" repeatCount="indefinite" calcMode="linear" keyPoints="0;1;1" keyTimes="0;0.727;1"/><animate attributeName="opacity" values="0;1;1;0;0" keyTimes="0;0.058;0.618;0.727;1" dur="3.30s" begin="2.02s" repeatCount="indefinite"/></g><g class="pulse" opacity="0"><circle r="5.5" class="halo"/><circle r="2.6"/><animateMotion path="M142.5 381L142.5 435L52.5 435" dur="1.86s" begin="2.02s" repeatCount="indefinite" calcMode="linear" keyPoints="0;1;1" keyTimes="0;0.516;1"/><animate attributeName="opacity" values="0;1;1;0;0" keyTimes="0;0.041;0.439;0.516;1" dur="1.86s" begin="2.02s" repeatCount="indefinite"/></g></svg>
