<svg xmlns="http://www.w3.org/2000/svg" viewBox="0 0 600 204" width="600" height="204" role="img" data-cell="9x18" data-pad="12" data-generator="ascii2svg 1.9.0"><title>ASCII diagram</title><style>.sgl{stroke-width:1.4;stroke-linecap:round;stroke-linejoin:round;fill:none}.dbl{stroke-width:5;stroke-linecap:round;stroke-linejoin:round;fill:none}.dbl-gap{stroke-width:2;stroke-linecap:round;stroke-linejoin:round;fill:none}.head{stroke-width:1;stroke-linejoin:round}text{font:14px ui-monospace,SFMono-Regular,Menlo,Consolas,'DejaVu Sans Mono',monospace;text-anchor:middle;white-space:pre}.dash.n2{stroke-dasharray:4.2 4.8}.dash.n3{stroke-dasharray:2.6 3.4}.dash.n4{stroke-dasharray:1.4 3.1}.uml{stroke-width:1.2;stroke-linejoin:round}.ring{stroke-width:1.3}.foot{fill:none;stroke-width:1.4;stroke-linecap:round;stroke-linejoin:round}.blk{shape-rendering:crispEdges}.k3{fill-opacity:.75}.k2{fill-opacity:.5}.k1{fill-opacity:.28}.fill{transition:fill .25s}text,line,path,polygon,circle,.blk{pointer-events:none}@keyframes a2s-gap{0%{stroke-dasharray:1 2;stroke-dashoffset:1.01}60%,100%{stroke-dasharray:1 2;stroke-dashoffset:0}}@keyframes a2s-fade{0%{opacity:0}}@keyframes a2s-pop{0%{opacity:0;transform:scale(.2)}}@keyframes a2s-grow{0%{transform:scaleX(0)}}.blk{animation:a2s-grow .7s cubic-bezier(.3,.7,.4,1) backwards}.blk{transform-box:fill-box;transform-origin:left}.sgl,.dbl{animation:a2s-draw .6s cubic-bezier(.3,.7,.4,1) backwards}.dbl-gap{animation:a2s-gap .6s cubic-bezier(.3,.7,.4,1) backwards}.sgl.shaft,.sgl.dash{animation:a2s-fade .3s ease-out backwards}.head,.uml,.ring{animation:a2s-pop .45s cubic-bezier(.3,1.6,.5,1) backwards}.foot{animation:a2s-fade .4s ease-out backwards}.head,.uml,.ring{transform-box:fill-box;transform-origin:center}text{animation:a2s-fade .5s ease-out backwards}.glow,.shadow,.fill,.plate{animation:a2s-fade .8s ease-out backwards}.pulse .halo{fill-opacity:.28}@media (prefers-reduced-motion:reduce){*{animation:none!important}.pulse{display:none}}.r1{animation-delay:0.15s}.r2{animation-delay:0.23s}.r7{animation-delay:0.60s}.r8{animation-delay:0.68s}.bg,.fill,.plate{fill:#ffffff}.sgl,.dbl{stroke:#1f2328}.dbl-gap{stroke:#ffffff}.head{fill:#1f2328;stroke:#1f2328}text{fill:#1f2328}.glow{fill:#000000;fill-opacity:0.02}.shadow{fill:#000}.blk{fill:#1f2328}.uml,.ring{fill:#ffffff;stroke:#1f2328}.uml.solid{fill:#1f2328}.foot{stroke:#1f2328}.shaft{stroke:#0969da}.head{fill:#0969da;stroke:#0969da}.blk{fill:#0969da}.uml{stroke:#0969da}.uml.solid{fill:#0969da}.fill.tn{fill:#f6f8fa}.fill.t0c{fill:#f1f8ff}.fill.t0l{fill:#dbeeff}.fill.t1c{fill:#f0fbf3}.fill.t1l{fill:#d4f5de}.fill.t2c{fill:#f8f4ff}.fill.t2l{fill:#ebdfff}.fill.t3c{fill:#fff7f0}.fill.t3l{fill:#ffe6d1}.fill.t4c{fill:#fff4f9}.fill.t4l{fill:#ffdcec}.fill.t5c{fill:#effbfa}.fill.t5l{fill:#cef3ef}.fill:hover{fill:#e2edfc}@keyframes a2s-draw{0%{stroke-dasharray:1 2;stroke-dashoffset:1.01;stroke:#0969da}60%{stroke-dasharray:1 2;stroke-dashoffset:0;stroke:#0969da}100%{stroke-dasharray:1 2;stroke-dashoffset:0}}.pulse circle{fill:#0969da}.a2s-live.sgl,.a2s-live.dbl{stroke:#0969da}@media (prefers-color-scheme:dark){.bg,.fill,.plate{fill:#0d1117}.sgl,.dbl{stroke:#e6edf3}.dbl-gap{stroke:#0d1117}.head{fill:#e6edf3;stroke:#e6edf3}text{fill:#e6edf3}.glow{fill:#ffffff;fill-opacity:0.012}.shadow{fill:#000}.blk{fill:#e6edf3}.uml,.ring{fill:#0d1117;stroke:#e6edf3}.uml.solid{fill:#e6edf3}.foot{stroke:#e6edf3}.shaft{stroke:#58a6ff}.head{fill:#58a6ff;stroke:#58a6ff}.blk{fill:#58a6ff}.uml{stroke:#58a6ff}.uml.solid{fill:#58a6ff}.fill.tn{fill:#151b23}.fill.t0c{fill:#0f1a2b}.fill.t0l{fill:#15325a}.fill.t1c{fill:#0e1f16}.fill.t1l{fill:#16402a}.fill.t2c{fill:#1b1530}.fill.t2l{fill:#34245a}.fill.t3c{fill:#23180e}.fill.t3l{fill:#4a2e14}.fill.t4c{fill:#241421}.fill.t4l{fill:#4a1f3a}.fill.t5c{fill:#0c2023}.fill.t5l{fill:#124042}.fill:hover{fill:#1c2d45}@keyframes a2s-draw{0%{stroke-dasharray:1 2;stroke-dashoffset:1.01;stroke:#58a6ff}60%{stroke-dasharray:1 2;stroke-dashoffset:0;stroke:#58a6ff}100%{stroke-dasharray:1 2;stroke-dashoffset:0}}.pulse circle{fill:#58a6ff}.a2s-live.sgl,.a2s-live.dbl{stroke:#58a6ff}}</style><rect width="100%" height="100%" fill="#ffffff" class="bg"/><rect x="9.5" y="15.5" width="167" height="68" rx="11" class="glow" style="animation-delay:0.00s"/><rect x="10" y="16" width="166" height="67" rx="10.5" class="glow" style="animation-delay:0.00s"/><rect x="10.5" y="16.5" width="165" height="66" rx="10" class="glow" style="animation-delay:0.00s"/><rect x="11" y="17" width="164" height="65" rx="9.5" class="glow" style="animation-delay:0.00s"/><rect x="11.5" y="17.5" width="163" height="64" rx="9" class="glow" style="animation-delay:0.00s"/><rect x="12" y="18" width="162" height="63" rx="8.5" class="glow" style="animation-delay:0.00s"/><rect x="12.5" y="18.5" width="161" height="62" rx="8" class="glow" style="animation-delay:0.00s"/><rect x="13" y="19" width="160" height="61" rx="7.5" class="glow" style="animation-delay:0.00s"/><rect x="13.5" y="19.5" width="159" height="60" rx="7" class="glow" style="animation-delay:0.00s"/><rect x="14" y="20" width="158" height="59" rx="6.5" class="glow" style="animation-delay:0.00s"/><rect x="14.5" y="20.5" width="157" height="58" rx="6" class="glow" style="animation-delay:0.00s"/><rect x="15" y="21" width="156" height="57" rx="5.5" class="glow" style="animation-delay:0.00s"/><rect x="15.5" y="21.5" width="155" height="56" rx="5" class="glow" style="animation-delay:0.00s"/><rect x="16" y="22" width="154" height="55" rx="4.5" class="glow" style="animation-delay:0.00s"/><rect x="16.5" y="21" width="153" height="54" rx="4" class="fill t0l" style="animation-delay:0.00s"/><rect x="216.5" y="15.5" width="167" height="68" rx="11" class="glow" style="animation-delay:0.00s"/><rect x="217" y="16" width="166" height="67" rx="10.5" class="glow" style="animation-delay:0.00s"/><rect x="217.5" y="16.5" width="165" height="66" rx="10" class="glow" style="animation-delay:0.00s"/><rect x="218" y="17" width="164" height="65" rx="9.5" class="glow" style="animation-delay:0.00s"/><rect x="218.5" y="17.5" width="163" height="64" rx="9" class="glow" style="animation-delay:0.00s"/><rect x="219" y="18" width="162" height="63" rx="8.5" class="glow" style="animation-delay:0.00s"/><rect x="219.5" y="18.5" width="161" height="62" rx="8" class="glow" style="animation-delay:0.00s"/><rect x="220" y="19" width="160" height="61" rx="7.5" class="glow" style="animation-delay:0.00s"/><rect x="220.5" y="19.5" width="159" height="60" rx="7" class="glow" style="animation-delay:0.00s"/><rect x="221" y="20" width="158" height="59" rx="6.5" class="glow" style="animation-delay:0.00s"/><rect x="221.5" y="20.5" width="157" height="58" rx="6" class="glow" style="animation-delay:0.00s"/><rect x="222" y="21" width="156" height="57" rx="5.5" class="glow" style="animation-delay:0.00s"/><rect x="222.5" y="21.5" width="155" height="56" rx="5" class="glow" style="animation-delay:0.00s"/><rect x="223" y="22" width="154" height="55" rx="4.5" class="glow" style="animation-delay:0.00s"/><rect x="223.5" y="21" width="153" height="54" rx="4" class="fill t1l" style="animation-delay:0.00s"/><rect x="423.5" y="15.5" width="167" height="68" rx="11" class="glow" style="animation-delay:0.00s"/><rect x="424" y="16" width="166" height="67" rx="10.5" class="glow" style="animation-delay:0.00s"/><rect x="424.5" y="16.5" width="165" height="66" rx="10" class="glow" style="animation-delay:0.00s"/><rect x="425" y="17" width="164" height="65" rx="9.5" class="glow" style="animation-delay:0.00s"/><rect x="425.5" y="17.5" width="163" height="64" rx="9" class="glow" style="animation-delay:0.00s"/><rect x="426" y="18" width="162" height="63" rx="8.5" class="glow" style="animation-delay:0.00s"/><rect x="426.5" y="18.5" width="161" height="62" rx="8" class="glow" style="animation-delay:0.00s"/><rect x="427" y="19" width="160" height="61" rx="7.5" class="glow" style="animation-delay:0.00s"/><rect x="427.5" y="19.5" width="159" height="60" rx="7" class="glow" style="animation-delay:0.00s"/><rect x="428" y="20" width="158" height="59" rx="6.5" class="glow" style="animation-delay:0.00s"/><rect x="428.5" y="20.5" width="157" height="58" rx="6" class="glow" style="animation-delay:0.00s"/><rect x="429" y="21" width="156" height="57" rx="5.5" class="glow" style="animation-delay:0.00s"/><rect x="429.5" y="21.5" width="155" height="56" rx="5" class="glow" style="animation-delay:0.00s"/><rect x="430" y="22" width="154" height="55" rx="4.5" class="glow" style="animation-delay:0.00s"/><rect x="430.5" y="21" width="153" height="54" rx="4" class="fill t2l" style="animation-delay:0.00s"/><rect x="9.5" y="123.5" width="167" height="68" rx="11" class="glow" style="animation-delay:0.45s"/><rect x="10" y="124" width="166" height="67" rx="10.5" class="glow" style="animation-delay:0.45s"/><rect x="10.5" y="124.5" width="165" height="66" rx="10" class="glow" style="animation-delay:0.45s"/><rect x="11" y="125" width="164" height="65" rx="9.5" class="glow" style="animation-delay:0.45s"/><rect x="11.5" y="125.5" width="163" height="64" rx="9" class="glow" style="animation-delay:0.45s"/><rect x="12" y="126" width="162" height="63" rx="8.5" class="glow" style="animation-delay:0.45s"/><rect x="12.5" y="126.5" width="161" height="62" rx="8" class="glow" style="animation-delay:0.45s"/><rect x="13" y="127" width="160" height="61" rx="7.5" class="glow" style="animation-delay:0.45s"/><rect x="13.5" y="127.5" width="159" height="60" rx="7" class="glow" style="animation-delay:0.45s"/><rect x="14" y="128" width="158" height="59" rx="6.5" class="glow" style="animation-delay:0.45s"/><rect x="14.5" y="128.5" width="157" height="58" rx="6" class="glow" style="animation-delay:0.45s"/><rect x="15" y="129" width="156" height="57" rx="5.5" class="glow" style="animation-delay:0.45s"/><rect x="15.5" y="129.5" width="155" height="56" rx="5" class="glow" style="animation-delay:0.45s"/><rect x="16" y="130" width="154" height="55" rx="4.5" class="glow" style="animation-delay:0.45s"/><rect x="16.5" y="129" width="153" height="54" rx="4" class="fill t3l" style="animation-delay:0.45s"/><rect x="216.5" y="123.5" width="167" height="68" rx="11" class="glow" style="animation-delay:0.45s"/><rect x="217" y="124" width="166" height="67" rx="10.5" class="glow" style="animation-delay:0.45s"/><rect x="217.5" y="124.5" width="165" height="66" rx="10" class="glow" style="animation-delay:0.45s"/><rect x="218" y="125" width="164" height="65" rx="9.5" class="glow" style="animation-delay:0.45s"/><rect x="218.5" y="125.5" width="163" height="64" rx="9" class="glow" style="animation-delay:0.45s"/><rect x="219" y="126" width="162" height="63" rx="8.5" class="glow" style="animation-delay:0.45s"/><rect x="219.5" y="126.5" width="161" height="62" rx="8" class="glow" style="animation-delay:0.45s"/><rect x="220" y="127" width="160" height="61" rx="7.5" class="glow" style="animation-delay:0.45s"/><rect x="220.5" y="127.5" width="159" height="60" rx="7" class="glow" style="animation-delay:0.45s"/><rect x="221" y="128" width="158" height="59" rx="6.5" class="glow" style="animation-delay:0.45s"/><rect x="221.5" y="128.5" width="157" height="58" rx="6" class="glow" style="animation-delay:0.45s"/><rect x="222" y="129" width="156" height="57" rx="5.5" class="glow" style="animation-delay:0.45s"/><rect x="222.5" y="129.5" width="155" height="56" rx="5" class="glow" style="animation-delay:0.45s"/><rect x="223" y="130" width="154" height="55" rx="4.5" class="glow" style="animation-delay:0.45s"/><rect x="223.5" y="129" width="153" height="54" rx="4" class="fill t4l" style="animation-delay:0.45s"/><rect x="423.5" y="123.5" width="167" height="68" rx="11" class="glow" style="animation-delay:0.45s"/><rect x="424" y="124" width="166" height="67" rx="10.5" class="glow" style="animation-delay:0.45s"/><rect x="424.5" y="124.5" width="165" height="66" rx="10" class="glow" style="animation-delay:0.45s"/><rect x="425" y="125" width="164" height="65" rx="9.5" class="glow" style="animation-delay:0.45s"/><rect x="425.5" y="125.5" width="163" height="64" rx="9" class="glow" style="animation-delay:0.45s"/><rect x="426" y="126" width="162" height="63" rx="8.5" class="glow" style="animation-delay:0.45s"/><rect x="426.5" y="126.5" width="161" height="62" rx="8" class="glow" style="animation-delay:0.45s"/><rect x="427" y="127" width="160" height="61" rx="7.5" class="glow" style="animation-delay:0.45s"/><rect x="427.5" y="127.5" width="159" height="60" rx="7" class="glow" style="animation-delay:0.45s"/><rect x="428" y="128" width="158" height="59" rx="6.5" class="glow" style="animation-delay:0.45s"/><rect x="428.5" y="128.5" width="157" height="58" rx="6" class="glow" style="animation-delay:0.45s"/><rect x="429" y="129" width="156" height="57" rx="5.5" class="glow" style="animation-delay:0.45s"/><rect x="429.5" y="129.5" width="155" height="56" rx="5" class="glow" style="animation-delay:0.45s"/><rect x="430" y="130" width="154" height="55" rx="4.5" class="glow" style="animation-delay:0.45s"/><rect x="430.5" y="129" width="153" height="54" rx="4" class="fill t5l" style="animation-delay:0.45s"/><path d="M20.5 21Q16.5 21 16.5 25" class="sgl" pathLength="1" style="animation-delay:0.00s;animation-duration:0.25s"/><path d="M165.5 21Q169.5 21 169.5 25" class="sgl" pathLength="1" style="animation-delay:0.00s;animation-duration:0.25s"/><path d="M227.5 21Q223.5 21 223.5 25" class="sgl" pathLength="1" style="animation-delay:0.00s;animation-duration:0.25s"/><path d="M372.5 21Q376.5 21 376.5 25" class="sgl" pathLength="1" style="animation-delay:0.00s;animation-duration:0.25s"/><path d="M434.5 21Q430.5 21 430.5 25" class="sgl" pathLength="1" style="animation-delay:0.00s;animation-duration:0.25s"/><path d="M579.5 21Q583.5 21 583.5 25" class="sgl" pathLength="1" style="animation-delay:0.00s;animation-duration:0.25s"/><path d="M20.5 75Q16.5 75 16.5 71" class="sgl" pathLength="1" style="animation-delay:0.23s;animation-duration:0.25s"/><path d="M165.5 75Q169.5 75 169.5 71" class="sgl" pathLength="1" style="animation-delay:0.23s;animation-duration:0.25s"/><path d="M227.5 75Q223.5 75 223.5 71" class="sgl" pathLength="1" style="animation-delay:0.23s;animation-duration:0.25s"/><path d="M372.5 75Q376.5 75 376.5 71" class="sgl" pathLength="1" style="animation-delay:0.23s;animation-duration:0.25s"/><path d="M434.5 75Q430.5 75 430.5 71" class="sgl" pathLength="1" style="animation-delay:0.23s;animation-duration:0.25s"/><path d="M579.5 75Q583.5 75 583.5 71" class="sgl" pathLength="1" style="animation-delay:0.23s;animation-duration:0.25s"/><path d="M20.5 129Q16.5 129 16.5 133" class="sgl" pathLength="1" style="animation-delay:0.45s;animation-duration:0.25s"/><path d="M165.5 129Q169.5 129 169.5 133" class="sgl" pathLength="1" style="animation-delay:0.45s;animation-duration:0.25s"/><path d="M227.5 129Q223.5 129 223.5 133" class="sgl" pathLength="1" style="animation-delay:0.45s;animation-duration:0.25s"/><path d="M372.5 129Q376.5 129 376.5 133" class="sgl" pathLength="1" style="animation-delay:0.45s;animation-duration:0.25s"/><path d="M434.5 129Q430.5 129 430.5 133" class="sgl" pathLength="1" style="animation-delay:0.45s;animation-duration:0.25s"/><path d="M579.5 129Q583.5 129 583.5 133" class="sgl" pathLength="1" style="animation-delay:0.45s;animation-duration:0.25s"/><path d="M20.5 183Q16.5 183 16.5 179" class="sgl" pathLength="1" style="animation-delay:0.68s;animation-duration:0.25s"/><path d="M165.5 183Q169.5 183 169.5 179" class="sgl" pathLength="1" style="animation-delay:0.68s;animation-duration:0.25s"/><path d="M227.5 183Q223.5 183 223.5 179" class="sgl" pathLength="1" style="animation-delay:0.68s;animation-duration:0.25s"/><path d="M372.5 183Q376.5 183 376.5 179" class="sgl" pathLength="1" style="animation-delay:0.68s;animation-duration:0.25s"/><path d="M434.5 183Q430.5 183 430.5 179" class="sgl" pathLength="1" style="animation-delay:0.68s;animation-duration:0.25s"/><path d="M579.5 183Q583.5 183 583.5 179" class="sgl" pathLength="1" style="animation-delay:0.68s;animation-duration:0.25s"/><line x1="20.5" y1="21" x2="165.5" y2="21" class="sgl" pathLength="1" style="animation-delay:0.00s;animation-duration:0.40s"/><line x1="227.5" y1="21" x2="372.5" y2="21" class="sgl" pathLength="1" style="animation-delay:0.00s;animation-duration:0.40s"/><line x1="434.5" y1="21" x2="579.5" y2="21" class="sgl" pathLength="1" style="animation-delay:0.00s;animation-duration:0.40s"/><line x1="169.5" y1="57" x2="210" y2="57" class="sgl" pathLength="1" style="animation-delay:0.15s;animation-duration:0.25s"/><line x1="376.5" y1="57" x2="417" y2="57" class="sgl" pathLength="1" style="animation-delay:0.15s;animation-duration:0.25s"/><line x1="20.5" y1="75" x2="165.5" y2="75" class="sgl" pathLength="1" style="animation-delay:0.23s;animation-duration:0.40s"/><line x1="227.5" y1="75" x2="372.5" y2="75" class="sgl" pathLength="1" style="animation-delay:0.23s;animation-duration:0.40s"/><line x1="434.5" y1="75" x2="579.5" y2="75" class="sgl" pathLength="1" style="animation-delay:0.23s;animation-duration:0.40s"/><line x1="20.5" y1="129" x2="165.5" y2="129" class="sgl" pathLength="1" style="animation-delay:0.45s;animation-duration:0.40s"/><line x1="227.5" y1="129" x2="372.5" y2="129" class="sgl" pathLength="1" style="animation-delay:0.45s;animation-duration:0.40s"/><line x1="434.5" y1="129" x2="579.5" y2="129" class="sgl" pathLength="1" style="animation-delay:0.45s;animation-duration:0.40s"/><line x1="183" y1="165" x2="223.5" y2="165" class="sgl" pathLength="1" style="animation-delay:0.60s;animation-duration:0.25s"/><line x1="390" y1="165" x2="430.5" y2="165" class="sgl" pathLength="1" style="animation-delay:0.60s;animation-duration:0.25s"/><line x1="20.5" y1="183" x2="165.5" y2="183" class="sgl" pathLength="1" style="animation-delay:0.68s;animation-duration:0.40s"/><line x1="227.5" y1="183" x2="372.5" y2="183" class="sgl" pathLength="1" style="animation-delay:0.68s;animation-duration:0.40s"/><line x1="434.5" y1="183" x2="579.5" y2="183" class="sgl" pathLength="1" style="animation-delay:0.68s;animation-duration:0.40s"/><line x1="16.5" y1="25" x2="16.5" y2="71" class="sgl" pathLength="1" style="animation-delay:0.05s;animation-duration:0.25s"/><line x1="16.5" y1="133" x2="16.5" y2="179" class="sgl" pathLength="1" style="animation-delay:0.50s;animation-duration:0.25s"/><line x1="169.5" y1="25" x2="169.5" y2="71" class="sgl" pathLength="1" style="animation-delay:0.05s;animation-duration:0.25s"/><line x1="169.5" y1="133" x2="169.5" y2="179" class="sgl" pathLength="1" style="animation-delay:0.50s;animation-duration:0.25s"/><line x1="223.5" y1="25" x2="223.5" y2="71" class="sgl" pathLength="1" style="animation-delay:0.05s;animation-duration:0.25s"/><line x1="223.5" y1="133" x2="223.5" y2="179" class="sgl" pathLength="1" style="animation-delay:0.50s;animation-duration:0.25s"/><line x1="376.5" y1="25" x2="376.5" y2="71" class="sgl" pathLength="1" style="animation-delay:0.05s;animation-duration:0.25s"/><line x1="376.5" y1="133" x2="376.5" y2="179" class="sgl" pathLength="1" style="animation-delay:0.50s;animation-duration:0.25s"/><line x1="430.5" y1="25" x2="430.5" y2="71" class="sgl" pathLength="1" style="animation-delay:0.05s;animation-duration:0.25s"/><line x1="430.5" y1="133" x2="430.5" y2="179" class="sgl" pathLength="1" style="animation-delay:0.50s;animation-duration:0.25s"/><line x1="502.5" y1="75" x2="502.5" y2="102" class="sgl" pathLength="1" style="animation-delay:0.26s;animation-duration:0.25s"/><line x1="583.5" y1="25" x2="583.5" y2="71" class="sgl" pathLength="1" style="animation-delay:0.05s;animation-duration:0.25s"/><line x1="583.5" y1="133" x2="583.5" y2="179" class="sgl" pathLength="1" style="animation-delay:0.50s;animation-duration:0.25s"/><line x1="210" y1="57" x2="217.5" y2="57" class="sgl shaft" style="animation-delay:0.30s"/><polygon points="215.5,53 215.5,61 223.5,57" class="head" style="animation-delay:0.30s"/><line x1="417" y1="57" x2="424.5" y2="57" class="sgl shaft" style="animation-delay:0.30s"/><polygon points="422.5,53 422.5,61 430.5,57" class="head" style="animation-delay:0.30s"/><line x1="502.5" y1="102" x2="502.5" y2="123" class="sgl shaft" style="animation-delay:0.53s"/><polygon points="498.5,121 506.5,121 502.5,129" class="head" style="animation-delay:0.53s"/><line x1="183" y1="165" x2="175.5" y2="165" class="sgl shaft" style="animation-delay:0.75s"/><polygon points="177.5,161 177.5,169 169.5,165" class="head" style="animation-delay:0.75s"/><line x1="390" y1="165" x2="382.5" y2="165" class="sgl shaft" style="animation-delay:0.75s"/><polygon points="384.5,161 384.5,169 376.5,165" class="head" style="animation-delay:0.75s"/><text x="34.5" y="44" class="r1">y</text><text x="43.5" y="44" class="r1">o</text><text x="52.5" y="44" class="r1">u</text><text x="61.5" y="44" class="r1">r</text><text x="79.5" y="44" class="r1">d</text><text x="88.5" y="44" class="r1">i</text><text x="97.5" y="44" class="r1">a</text><text x="106.5" y="44" class="r1">g</text><text x="115.5" y="44" class="r1">r</text><text x="124.5" y="44" class="r1">a</text><text x="133.5" y="44" class="r1">m</text><text x="241.5" y="44" class="r1">f</text><text x="250.5" y="44" class="r1">i</text><text x="259.5" y="44" class="r1">n</text><text x="268.5" y="44" class="r1">d</text><text x="286.5" y="44" class="r1">b</text><text x="295.5" y="44" class="r1">o</text><text x="304.5" y="44" class="r1">x</text><text x="313.5" y="44" class="r1">e</text><text x="322.5" y="44" class="r1">s</text><text x="331.5" y="44" class="r1">,</text><text x="448.5" y="44" class="r1">d</text><text x="457.5" y="44" class="r1">r</text><text x="466.5" y="44" class="r1">a</text><text x="475.5" y="44" class="r1">w</text><text x="493.5" y="44" class="r1">l</text><text x="502.5" y="44" class="r1">i</text><text x="511.5" y="44" class="r1">n</text><text x="520.5" y="44" class="r1">e</text><text x="529.5" y="44" class="r1">s</text><text x="538.5" y="44" class="r1">,</text><text x="34.5" y="62" class="r2">(</text><text x="43.5" y="62" class="r2">p</text><text x="52.5" y="62" class="r2">l</text><text x="61.5" y="62" class="r2">a</text><text x="70.5" y="62" class="r2">i</text><text x="79.5" y="62" class="r2">n</text><text x="97.5" y="62" class="r2">t</text><text x="106.5" y="62" class="r2">e</text><text x="115.5" y="62" class="r2">x</text><text x="124.5" y="62" class="r2">t</text><text x="133.5" y="62" class="r2">)</text><text x="241.5" y="62" class="r2">l</text><text x="250.5" y="62" class="r2">i</text><text x="259.5" y="62" class="r2">n</text><text x="268.5" y="62" class="r2">e</text><text x="277.5" y="62" class="r2">s</text><text x="286.5" y="62" class="r2">,</text><text x="304.5" y="62" class="r2">a</text><text x="313.5" y="62" class="r2">r</text><text x="322.5" y="62" class="r2">r</text><text x="331.5" y="62" class="r2">o</text><text x="340.5" y="62" class="r2">w</text><text x="349.5" y="62" class="r2">s</text><text x="448.5" y="62" class="r2">c</text><text x="457.5" y="62" class="r2">o</text><text x="466.5" y="62" class="r2">l</text><text x="475.5" y="62" class="r2">o</text><text x="484.5" y="62" class="r2">u</text><text x="493.5" y="62" class="r2">r</text><text x="502.5" y="62" class="r2">,</text><text x="520.5" y="62" class="r2">m</text><text x="529.5" y="62" class="r2">o</text><text x="538.5" y="62" class="r2">t</text><text x="547.5" y="62" class="r2">i</text><text x="556.5" y="62" class="r2">o</text><text x="565.5" y="62" class="r2">n</text><text x="34.5" y="152" class="r7">d</text><text x="43.5" y="152" class="r7">i</text><text x="52.5" y="152" class="r7">a</text><text x="61.5" y="152" class="r7">g</text><text x="70.5" y="152" class="r7">r</text><text x="79.5" y="152" class="r7">a</text><text x="88.5" y="152" class="r7">m</text><text x="97.5" y="152" class="r7">.</text><text x="106.5" y="152" class="r7">s</text><text x="115.5" y="152" class="r7">v</text><text x="124.5" y="152" class="r7">g</text><text x="241.5" y="152" class="r7">s</text><text x="250.5" y="152" class="r7">a</text><text x="259.5" y="152" class="r7">m</text><text x="268.5" y="152" class="r7">e</text><text x="286.5" y="152" class="r7">t</text><text x="295.5" y="152" class="r7">e</text><text x="304.5" y="152" class="r7">x</text><text x="313.5" y="152" class="r7">t</text><text x="322.5" y="152" class="r7">?</text><text x="448.5" y="152" class="r7">r</text><text x="457.5" y="152" class="r7">e</text><text x="466.5" y="152" class="r7">a</text><text x="475.5" y="152" class="r7">d</text><text x="493.5" y="152" class="r7">t</text><text x="502.5" y="152" class="r7">h</text><text x="511.5" y="152" class="r7">e</text><text x="529.5" y="152" class="r7">S</text><text x="538.5" y="152" class="r7">V</text><text x="547.5" y="152" class="r7">G</text><text x="34.5" y="170" class="r8">r</text><text x="43.5" y="170" class="r8">e</text><text x="52.5" y="170" class="r8">a</text><text x="61.5" y="170" class="r8">d</text><text x="70.5" y="170" class="r8">y</text><text x="88.5" y="170" class="r8">t</text><text x="97.5" y="170" class="r8">o</text><text x="115.5" y="170" class="r8">s</text><text x="124.5" y="170" class="r8">h</text><text x="133.5" y="170" class="r8">a</text><text x="142.5" y="170" class="r8">r</text><text x="151.5" y="170" class="r8">e</text><text x="241.5" y="170" class="r8">s</text><text x="250.5" y="170" class="r8">a</text><text x="259.5" y="170" class="r8">m</text><text x="268.5" y="170" class="r8">e</text><text x="286.5" y="170" class="r8">c</text><text x="295.5" y="170" class="r8">e</text><text x="304.5" y="170" class="r8">l</text><text x="313.5" y="170" class="r8">l</text><text x="322.5" y="170" class="r8">s</text><text x="331.5" y="170" class="r8">?</text><text x="448.5" y="170" class="r8">b</text><text x="457.5" y="170" class="r8">a</text><text x="466.5" y="170" class="r8">c</text><text x="475.5" y="170" class="r8">k</text><text x="493.5" y="170" class="r8">t</text><text x="502.5" y="170" class="r8">o</text><text x="520.5" y="170" class="r8">a</text><text x="538.5" y="170" class="r8">g</text><text x="547.5" y="170" class="r8">r</text><text x="556.5" y="170" class="r8">i</text><text x="565.5" y="170" class="r8">d</text><g class="pulse" opacity="0"><circle r="5.5" class="halo"/><circle r="2.6"/><animateMotion path="M169.5 57L223.5 57" dur="1.30s" begin="1.65s" repeatCount="indefinite" calcMode="linear" keyPoints="0;1;1" keyTimes="0;0.308;1"/><animate attributeName="opacity" values="0;1;1;0;0" keyTimes="0;0.025;0.262;0.308;1" dur="1.30s" begin="1.65s" repeatCount="indefinite"/></g><g class="pulse" opacity="0"><circle r="5.5" class="halo"/><circle r="2.6"/><animateMotion path="M376.5 57L430.5 57" dur="1.30s" begin="1.65s" repeatCount="indefinite" calcMode="linear" keyPoints="0;1;1" keyTimes="0;0.308;1"/><animate attributeName="opacity" values="0;1;1;0;0" keyTimes="0;0.025;0.262;0.308;1" dur="1.30s" begin="1.65s" repeatCount="indefinite"/></g><g class="pulse" opacity="0"><circle r="5.5" class="halo"/><circle r="2.6"/><animateMotion path="M502.5 75L502.5 129" dur="1.30s" begin="1.65s" repeatCount="indefinite" calcMode="linear" keyPoints="0;1;1" keyTimes="0;0.308;1"/><animate attributeName="opacity" values="0;1;1;0;0" keyTimes="0;0.025;0.262;0.308;1" dur="1.30s" begin="1.65s" repeatCount="indefinite"/></g><g class="pulse" opacity="0"><circle r="5.5" class="halo"/><circle r="2.6"/><animateMotion path="M223.5 165L169.5 165" dur="1.30s" begin="1.65s" repeatCount="indefinite" calcMode="linear" keyPoints="0;1;1" keyTimes="0;0.308;1"/><animate attributeName="opacity" values="0;1;1;0;0" keyTimes="0;0.025;0.262;0.308;1" dur="1.30s" begin="1.65s" repeatCount="indefinite"/></g><g class="pulse" opacity="0"><circle r="5.5" class="halo"/><circle r="2.6"/><animateMotion path="M430.5 165L376.5 165" dur="1.30s" begin="1.65s" repeatCount="indefinite" calcMode="linear" keyPoints="0;1;1" keyTimes="0;0.308;1"/><animate attributeName="opacity" values="0;1;1;0;0" keyTimes="0;0.025;0.262;0.308;1" dur="1.30s" begin="1.65s" repeatCount="indefinite"/></g></svg>
