<svg xmlns="http://www.w3.org/2000/svg" viewBox="0 0 978 366" width="978" height="366" role="img" data-cell="9x18" data-pad="12" data-generator="ascii2svg 1.8.0"><title>Revenue pivot</title><style>.sgl{stroke-width:1.4;stroke-linecap:round;stroke-linejoin:round;fill:none}.dbl{stroke-width:5;stroke-linecap:round;stroke-linejoin:round;fill:none}.dbl-gap{stroke-width:2;stroke-linecap:round;stroke-linejoin:round;fill:none}.head{stroke-width:1;stroke-linejoin:round}text{font:14px ui-monospace,SFMono-Regular,Menlo,Consolas,'DejaVu Sans Mono',monospace;text-anchor:middle;white-space:pre}.dash.n2{stroke-dasharray:4.2 4.8}.dash.n3{stroke-dasharray:2.6 3.4}.dash.n4{stroke-dasharray:1.4 3.1}.uml{stroke-width:1.2;stroke-linejoin:round}.ring{stroke-width:1.3}.foot{fill:none;stroke-width:1.4;stroke-linecap:round;stroke-linejoin:round}.blk{shape-rendering:crispEdges}.k3{fill-opacity:.75}.k2{fill-opacity:.5}.k1{fill-opacity:.28}.fill{transition:fill .25s}text,line,path,polygon,circle,.blk{pointer-events:none}.bg,.fill,.plate{fill:#ffffff}.sgl,.dbl{stroke:#1f2328}.dbl-gap{stroke:#ffffff}.head{fill:#1f2328;stroke:#1f2328}text{fill:#1f2328}.glow{fill:#000000;fill-opacity:0.02}.shadow{fill:#000}.blk{fill:#1f2328}.uml,.ring{fill:#ffffff;stroke:#1f2328}.uml.solid{fill:#1f2328}.foot{stroke:#1f2328}.shaft{stroke:#0969da}.head{fill:#0969da;stroke:#0969da}.blk{fill:#0969da}.uml{stroke:#0969da}.uml.solid{fill:#0969da}.fill.tn{fill:#f6f8fa}.fill.t0c{fill:#f1f8ff}.fill.t0l{fill:#dbeeff}.fill.t1c{fill:#f0fbf3}.fill.t1l{fill:#d4f5de}.fill.t2c{fill:#f8f4ff}.fill.t2l{fill:#ebdfff}.fill.t3c{fill:#fff7f0}.fill.t3l{fill:#ffe6d1}.fill.t4c{fill:#fff4f9}.fill.t4l{fill:#ffdcec}.fill.t5c{fill:#effbfa}.fill.t5l{fill:#cef3ef}.fill:hover{fill:#e2edfc}@media (prefers-color-scheme:dark){.bg,.fill,.plate{fill:#0d1117}.sgl,.dbl{stroke:#e6edf3}.dbl-gap{stroke:#0d1117}.head{fill:#e6edf3;stroke:#e6edf3}text{fill:#e6edf3}.glow{fill:#ffffff;fill-opacity:0.012}.shadow{fill:#000}.blk{fill:#e6edf3}.uml,.ring{fill:#0d1117;stroke:#e6edf3}.uml.solid{fill:#e6edf3}.foot{stroke:#e6edf3}.shaft{stroke:#58a6ff}.head{fill:#58a6ff;stroke:#58a6ff}.blk{fill:#58a6ff}.uml{stroke:#58a6ff}.uml.solid{fill:#58a6ff}.fill.tn{fill:#151b23}.fill.t0c{fill:#0f1a2b}.fill.t0l{fill:#15325a}.fill.t1c{fill:#0e1f16}.fill.t1l{fill:#16402a}.fill.t2c{fill:#1b1530}.fill.t2l{fill:#34245a}.fill.t3c{fill:#23180e}.fill.t3l{fill:#4a2e14}.fill.t4c{fill:#241421}.fill.t4l{fill:#4a1f3a}.fill.t5c{fill:#0c2023}.fill.t5l{fill:#124042}.fill:hover{fill:#1c2d45}}</style><rect width="100%" height="100%" fill="#ffffff" class="bg"/><rect x="9.5" y="51.5" width="671" height="302" rx="11" class="glow"/><rect x="10" y="52" width="670" height="301" rx="10.5" class="glow"/><rect x="10.5" y="52.5" width="669" height="300" rx="10" class="glow"/><rect x="11" y="53" width="668" height="299" rx="9.5" class="glow"/><rect x="11.5" y="53.5" width="667" height="298" rx="9" class="glow"/><rect x="12" y="54" width="666" height="297" rx="8.5" class="glow"/><rect x="12.5" y="54.5" width="665" height="296" rx="8" class="glow"/><rect x="13" y="55" width="664" height="295" rx="7.5" class="glow"/><rect x="13.5" y="55.5" width="663" height="294" rx="7" class="glow"/><rect x="14" y="56" width="662" height="293" rx="6.5" class="glow"/><rect x="14.5" y="56.5" width="661" height="292" rx="6" class="glow"/><rect x="15" y="57" width="660" height="291" rx="5.5" class="glow"/><rect x="15.5" y="57.5" width="659" height="290" rx="5" class="glow"/><rect x="16" y="58" width="658" height="289" rx="4.5" class="glow"/><rect x="16.5" y="57" width="657" height="288" rx="4" class="fill t0l"/><rect x="720.5" y="231.5" width="248" height="68" rx="11" class="glow"/><rect x="721" y="232" width="247" height="67" rx="10.5" class="glow"/><rect x="721.5" y="232.5" width="246" height="66" rx="10" class="glow"/><rect x="722" y="233" width="245" height="65" rx="9.5" class="glow"/><rect x="722.5" y="233.5" width="244" height="64" rx="9" class="glow"/><rect x="723" y="234" width="243" height="63" rx="8.5" class="glow"/><rect x="723.5" y="234.5" width="242" height="62" rx="8" class="glow"/><rect x="724" y="235" width="241" height="61" rx="7.5" class="glow"/><rect x="724.5" y="235.5" width="240" height="60" rx="7" class="glow"/><rect x="725" y="236" width="239" height="59" rx="6.5" class="glow"/><rect x="725.5" y="236.5" width="238" height="58" rx="6" class="glow"/><rect x="726" y="237" width="237" height="57" rx="5.5" class="glow"/><rect x="726.5" y="237.5" width="236" height="56" rx="5" class="glow"/><rect x="727" y="238" width="235" height="55" rx="4.5" class="glow"/><rect x="727.5" y="237" width="234" height="54" rx="4" class="fill t1l"/><path d="M20.5 57Q16.5 57 16.5 61" class="sgl"/><path d="M669.5 57Q673.5 57 673.5 61" class="sgl"/><path d="M731.5 237Q727.5 237 727.5 241" class="sgl"/><path d="M957.5 237Q961.5 237 961.5 241" class="sgl"/><path d="M731.5 291Q727.5 291 727.5 287" class="sgl"/><path d="M957.5 291Q961.5 291 961.5 287" class="sgl"/><path d="M20.5 345Q16.5 345 16.5 341" class="sgl"/><path d="M669.5 345Q673.5 345 673.5 341" class="sgl"/><line x1="20.5" y1="57" x2="669.5" y2="57" class="sgl"/><line x1="16.5" y1="93" x2="673.5" y2="93" class="sgl"/><line x1="16.5" y1="165" x2="673.5" y2="165" class="sgl"/><line x1="16.5" y1="237" x2="673.5" y2="237" class="sgl"/><line x1="731.5" y1="237" x2="957.5" y2="237" class="sgl"/><line x1="687" y1="255" x2="727.5" y2="255" class="sgl"/><line x1="731.5" y1="291" x2="957.5" y2="291" class="sgl"/><line x1="16.5" y1="309" x2="673.5" y2="309" class="sgl"/><line x1="20.5" y1="345" x2="669.5" y2="345" class="sgl"/><line x1="16.5" y1="61" x2="16.5" y2="341" class="sgl"/><line x1="151.5" y1="57" x2="151.5" y2="345" class="sgl"/><line x1="259.5" y1="57" x2="259.5" y2="345" class="sgl"/><line x1="340.5" y1="57" x2="340.5" y2="345" class="sgl"/><line x1="421.5" y1="57" x2="421.5" y2="345" class="sgl"/><line x1="502.5" y1="57" x2="502.5" y2="345" class="sgl"/><line x1="583.5" y1="57" x2="583.5" y2="345" class="sgl"/><line x1="673.5" y1="61" x2="673.5" y2="341" class="sgl"/><line x1="727.5" y1="241" x2="727.5" y2="287" class="sgl"/><line x1="961.5" y1="241" x2="961.5" y2="287" class="sgl"/><line x1="687" y1="255" x2="679.5" y2="255" class="sgl shaft"/><polygon points="681.5,251 681.5,259 673.5,255" class="head"/><text x="25.5" y="26">R</text><text x="34.5" y="26">e</text><text x="43.5" y="26">v</text><text x="52.5" y="26">e</text><text x="61.5" y="26">n</text><text x="70.5" y="26">u</text><text x="79.5" y="26">e</text><text x="97.5" y="26">b</text><text x="106.5" y="26">y</text><text x="124.5" y="26">r</text><text x="133.5" y="26">e</text><text x="142.5" y="26">g</text><text x="151.5" y="26">i</text><text x="160.5" y="26">o</text><text x="169.5" y="26">n</text><text x="187.5" y="26">a</text><text x="196.5" y="26">n</text><text x="205.5" y="26">d</text><text x="223.5" y="26">q</text><text x="232.5" y="26">u</text><text x="241.5" y="26">a</text><text x="250.5" y="26">r</text><text x="259.5" y="26">t</text><text x="268.5" y="26">e</text><text x="277.5" y="26">r</text><text x="295.5" y="26">(</text><text x="304.5" y="26">U</text><text x="313.5" y="26">S</text><text x="322.5" y="26">D</text><text x="340.5" y="26">k</text><text x="349.5" y="26">)</text><text x="34.5" y="80">R</text><text x="43.5" y="80">e</text><text x="52.5" y="80">g</text><text x="61.5" y="80">i</text><text x="70.5" y="80">o</text><text x="79.5" y="80">n</text><text x="169.5" y="80">C</text><text x="178.5" y="80">o</text><text x="187.5" y="80">u</text><text x="196.5" y="80">n</text><text x="205.5" y="80">t</text><text x="214.5" y="80">r</text><text x="223.5" y="80">y</text><text x="313.5" y="80">Q</text><text x="322.5" y="80">1</text><text x="394.5" y="80">Q</text><text x="403.5" y="80">2</text><text x="475.5" y="80">Q</text><text x="484.5" y="80">3</text><text x="556.5" y="80">Q</text><text x="565.5" y="80">4</text><text x="619.5" y="80">T</text><text x="628.5" y="80">o</text><text x="637.5" y="80">t</text><text x="646.5" y="80">a</text><text x="655.5" y="80">l</text><text x="34.5" y="116">E</text><text x="43.5" y="116">M</text><text x="52.5" y="116">E</text><text x="61.5" y="116">A</text><text x="169.5" y="116">G</text><text x="178.5" y="116">e</text><text x="187.5" y="116">r</text><text x="196.5" y="116">m</text><text x="205.5" y="116">a</text><text x="214.5" y="116">n</text><text x="223.5" y="116">y</text><text x="304.5" y="116">4</text><text x="313.5" y="116">2</text><text x="322.5" y="116">0</text><text x="385.5" y="116">4</text><text x="394.5" y="116">5</text><text x="403.5" y="116">5</text><text x="466.5" y="116">4</text><text x="475.5" y="116">7</text><text x="484.5" y="116">0</text><text x="547.5" y="116">5</text><text x="556.5" y="116">1</text><text x="565.5" y="116">0</text><text x="619.5" y="116">1</text><text x="628.5" y="116">,</text><text x="637.5" y="116">8</text><text x="646.5" y="116">5</text><text x="655.5" y="116">5</text><text x="169.5" y="134">F</text><text x="178.5" y="134">r</text><text x="187.5" y="134">a</text><text x="196.5" y="134">n</text><text x="205.5" y="134">c</text><text x="214.5" y="134">e</text><text x="304.5" y="134">3</text><text x="313.5" y="134">1</text><text x="322.5" y="134">0</text><text x="385.5" y="134">3</text><text x="394.5" y="134">0</text><text x="403.5" y="134">0</text><text x="466.5" y="134">3</text><text x="475.5" y="134">3</text><text x="484.5" y="134">5</text><text x="547.5" y="134">3</text><text x="556.5" y="134">6</text><text x="565.5" y="134">0</text><text x="619.5" y="134">1</text><text x="628.5" y="134">,</text><text x="637.5" y="134">3</text><text x="646.5" y="134">0</text><text x="655.5" y="134">5</text><text x="169.5" y="152">s</text><text x="178.5" y="152">u</text><text x="187.5" y="152">b</text><text x="196.5" y="152">t</text><text x="205.5" y="152">o</text><text x="214.5" y="152">t</text><text x="223.5" y="152">a</text><text x="232.5" y="152">l</text><text x="304.5" y="152">7</text><text x="313.5" y="152">3</text><text x="322.5" y="152">0</text><text x="385.5" y="152">7</text><text x="394.5" y="152">5</text><text x="403.5" y="152">5</text><text x="466.5" y="152">8</text><text x="475.5" y="152">0</text><text x="484.5" y="152">5</text><text x="547.5" y="152">8</text><text x="556.5" y="152">7</text><text x="565.5" y="152">0</text><text x="619.5" y="152">3</text><text x="628.5" y="152">,</text><text x="637.5" y="152">1</text><text x="646.5" y="152">6</text><text x="655.5" y="152">0</text><text x="34.5" y="188">A</text><text x="43.5" y="188">m</text><text x="52.5" y="188">e</text><text x="61.5" y="188">r</text><text x="70.5" y="188">i</text><text x="79.5" y="188">c</text><text x="88.5" y="188">a</text><text x="97.5" y="188">s</text><text x="169.5" y="188">U</text><text x="178.5" y="188">S</text><text x="187.5" y="188">A</text><text x="304.5" y="188">9</text><text x="313.5" y="188">8</text><text x="322.5" y="188">0</text><text x="367.5" y="188">1</text><text x="376.5" y="188">,</text><text x="385.5" y="188">0</text><text x="394.5" y="188">2</text><text x="403.5" y="188">0</text><text x="448.5" y="188">1</text><text x="457.5" y="188">,</text><text x="466.5" y="188">0</text><text x="475.5" y="188">5</text><text x="484.5" y="188">0</text><text x="529.5" y="188">1</text><text x="538.5" y="188">,</text><text x="547.5" y="188">1</text><text x="556.5" y="188">3</text><text x="565.5" y="188">0</text><text x="619.5" y="188">4</text><text x="628.5" y="188">,</text><text x="637.5" y="188">1</text><text x="646.5" y="188">8</text><text x="655.5" y="188">0</text><text x="169.5" y="206">B</text><text x="178.5" y="206">r</text><text x="187.5" y="206">a</text><text x="196.5" y="206">z</text><text x="205.5" y="206">i</text><text x="214.5" y="206">l</text><text x="304.5" y="206">1</text><text x="313.5" y="206">5</text><text x="322.5" y="206">0</text><text x="385.5" y="206">1</text><text x="394.5" y="206">6</text><text x="403.5" y="206">5</text><text x="466.5" y="206">1</text><text x="475.5" y="206">6</text><text x="484.5" y="206">0</text><text x="547.5" y="206">1</text><text x="556.5" y="206">9</text><text x="565.5" y="206">0</text><text x="637.5" y="206">6</text><text x="646.5" y="206">6</text><text x="655.5" y="206">5</text><text x="169.5" y="224">s</text><text x="178.5" y="224">u</text><text x="187.5" y="224">b</text><text x="196.5" y="224">t</text><text x="205.5" y="224">o</text><text x="214.5" y="224">t</text><text x="223.5" y="224">a</text><text x="232.5" y="224">l</text><text x="286.5" y="224">1</text><text x="295.5" y="224">,</text><text x="304.5" y="224">1</text><text x="313.5" y="224">3</text><text x="322.5" y="224">0</text><text x="367.5" y="224">1</text><text x="376.5" y="224">,</text><text x="385.5" y="224">1</text><text x="394.5" y="224">8</text><text x="403.5" y="224">5</text><text x="448.5" y="224">1</text><text x="457.5" y="224">,</text><text x="466.5" y="224">2</text><text x="475.5" y="224">1</text><text x="484.5" y="224">0</text><text x="529.5" y="224">1</text><text x="538.5" y="224">,</text><text x="547.5" y="224">3</text><text x="556.5" y="224">2</text><text x="565.5" y="224">0</text><text x="619.5" y="224">4</text><text x="628.5" y="224">,</text><text x="637.5" y="224">8</text><text x="646.5" y="224">4</text><text x="655.5" y="224">5</text><text x="34.5" y="260">A</text><text x="43.5" y="260">P</text><text x="52.5" y="260">A</text><text x="61.5" y="260">C</text><text x="169.5" y="260">J</text><text x="178.5" y="260">a</text><text x="187.5" y="260">p</text><text x="196.5" y="260">a</text><text x="205.5" y="260">n</text><text x="304.5" y="260">2</text><text x="313.5" y="260">6</text><text x="322.5" y="260">0</text><text x="385.5" y="260">2</text><text x="394.5" y="260">7</text><text x="403.5" y="260">5</text><text x="466.5" y="260">4</text><text x="475.5" y="260">1</text><text x="484.5" y="260">0</text><text x="547.5" y="260">4</text><text x="556.5" y="260">3</text><text x="565.5" y="260">0</text><text x="619.5" y="260">1</text><text x="628.5" y="260">,</text><text x="637.5" y="260">3</text><text x="646.5" y="260">7</text><text x="655.5" y="260">5</text><text x="745.5" y="260">Q</text><text x="754.5" y="260">3</text><text x="772.5" y="260">s</text><text x="781.5" y="260">p</text><text x="790.5" y="260">i</text><text x="799.5" y="260">k</text><text x="808.5" y="260">e</text><text x="817.5" y="260">:</text><text x="835.5" y="260">J</text><text x="844.5" y="260">a</text><text x="853.5" y="260">p</text><text x="862.5" y="260">a</text><text x="871.5" y="260">n</text><text x="889.5" y="260">+</text><text x="898.5" y="260">4</text><text x="907.5" y="260">9</text><text x="916.5" y="260">%</text><text x="169.5" y="278">I</text><text x="178.5" y="278">n</text><text x="187.5" y="278">d</text><text x="196.5" y="278">i</text><text x="205.5" y="278">a</text><text x="304.5" y="278">1</text><text x="313.5" y="278">2</text><text x="322.5" y="278">0</text><text x="385.5" y="278">1</text><text x="394.5" y="278">4</text><text x="403.5" y="278">0</text><text x="466.5" y="278">1</text><text x="475.5" y="278">5</text><text x="484.5" y="278">0</text><text x="547.5" y="278">1</text><text x="556.5" y="278">7</text><text x="565.5" y="278">5</text><text x="637.5" y="278">5</text><text x="646.5" y="278">8</text><text x="655.5" y="278">5</text><text x="745.5" y="278">T</text><text x="754.5" y="278">o</text><text x="763.5" y="278">k</text><text x="772.5" y="278">y</text><text x="781.5" y="278">o</text><text x="799.5" y="278">s</text><text x="808.5" y="278">t</text><text x="817.5" y="278">o</text><text x="826.5" y="278">r</text><text x="835.5" y="278">e</text><text x="853.5" y="278">o</text><text x="862.5" y="278">p</text><text x="871.5" y="278">e</text><text x="880.5" y="278">n</text><text x="889.5" y="278">e</text><text x="898.5" y="278">d</text><text x="169.5" y="296">s</text><text x="178.5" y="296">u</text><text x="187.5" y="296">b</text><text x="196.5" y="296">t</text><text x="205.5" y="296">o</text><text x="214.5" y="296">t</text><text x="223.5" y="296">a</text><text x="232.5" y="296">l</text><text x="304.5" y="296">3</text><text x="313.5" y="296">8</text><text x="322.5" y="296">0</text><text x="385.5" y="296">4</text><text x="394.5" y="296">1</text><text x="403.5" y="296">5</text><text x="466.5" y="296">5</text><text x="475.5" y="296">6</text><text x="484.5" y="296">0</text><text x="547.5" y="296">6</text><text x="556.5" y="296">0</text><text x="565.5" y="296">5</text><text x="619.5" y="296">1</text><text x="628.5" y="296">,</text><text x="637.5" y="296">9</text><text x="646.5" y="296">6</text><text x="655.5" y="296">0</text><text x="34.5" y="332">G</text><text x="43.5" y="332">r</text><text x="52.5" y="332">a</text><text x="61.5" y="332">n</text><text x="70.5" y="332">d</text><text x="88.5" y="332">t</text><text x="97.5" y="332">o</text><text x="106.5" y="332">t</text><text x="115.5" y="332">a</text><text x="124.5" y="332">l</text><text x="286.5" y="332">2</text><text x="295.5" y="332">,</text><text x="304.5" y="332">2</text><text x="313.5" y="332">4</text><text x="322.5" y="332">0</text><text x="367.5" y="332">2</text><text x="376.5" y="332">,</text><text x="385.5" y="332">3</text><text x="394.5" y="332">5</text><text x="403.5" y="332">5</text><text x="448.5" y="332">2</text><text x="457.5" y="332">,</text><text x="466.5" y="332">5</text><text x="475.5" y="332">7</text><text x="484.5" y="332">5</text><text x="529.5" y="332">2</text><text x="538.5" y="332">,</text><text x="547.5" y="332">7</text><text x="556.5" y="332">9</text><text x="565.5" y="332">5</text><text x="619.5" y="332">9</text><text x="628.5" y="332">,</text><text x="637.5" y="332">9</text><text x="646.5" y="332">6</text><text x="655.5" y="332">5</text></svg>
